<?xml version="1.0" encoding="utf-8"?><svg xmlns="http://www.w3.org/2000/svg" xmlns:xlink="http://www.w3.org/1999/xlink"><symbol viewBox="0 0 24 24" fill="none" stroke="currentColor" stroke-width="1.5" stroke-linecap="round" stroke-linejoin="round" id="angle-double" xmlns="http://www.w3.org/2000/svg"><path d="m17 11-5-5-5 5"/><path d="m17 18-5-5-5 5"/></symbol><symbol viewBox="0 0 24 24" fill="none" stroke="currentColor" stroke-width="1.5" stroke-linecap="round" stroke-linejoin="round" class="aclucide aclucide-chevron-down-icon aclucide-chevron-down" id="angle-down" xmlns="http://www.w3.org/2000/svg"><path d="m6 9 6 6 6-6"/></symbol><symbol viewBox="0 0 24 24" fill="none" stroke="#f7f6f4" stroke-width="1.5" stroke-linecap="round" stroke-linejoin="round" class="ablucide ablucide-chevron-down-icon ablucide-chevron-down" id="angle-down-light" xmlns="http://www.w3.org/2000/svg"><path d="m6 9 6 6 6-6"/></symbol><symbol viewBox="0 0 24 24" fill="none" stroke="currentColor" stroke-width="1.5" stroke-linecap="round" stroke-linejoin="round" class="adlucide adlucide-arrow-left-icon adlucide-arrow-left" id="arrow-left" xmlns="http://www.w3.org/2000/svg"><path d="m12 19-7-7 7-7"/><path d="M19 12H5"/></symbol><symbol viewBox="0 0 24 24" fill="none" stroke="currentColor" stroke-width="1.5" stroke-linecap="round" stroke-linejoin="round" class="aelucide aelucide-arrow-right-icon aelucide-arrow-right" id="arrow-right" xmlns="http://www.w3.org/2000/svg"><path d="M5 12h14"/><path d="m12 5 7 7-7 7"/></symbol><symbol viewBox="0 0 24 24" fill="none" stroke="currentColor" stroke-width="1.5" stroke-linecap="round" stroke-linejoin="round" class="aflucide aflucide-user-icon aflucide-user" id="avatar" xmlns="http://www.w3.org/2000/svg"><path d="M19 21v-2a4 4 0 0 0-4-4H9a4 4 0 0 0-4 4v2"/><circle cx="12" cy="7" r="4"/></symbol><symbol viewBox="0 0 24 24" fill="none" stroke="currentColor" stroke-width="1.5" stroke-linecap="round" stroke-linejoin="round" class="aglucide aglucide-menu-icon aglucide-menu" id="bars" xmlns="http://www.w3.org/2000/svg"><path d="M4 5h16"/><path d="M4 12h16"/><path d="M4 19h16"/></symbol><symbol viewBox="0 0 24 24" fill="none" stroke="currentColor" stroke-width="1.5" stroke-linecap="round" stroke-linejoin="round" class="ahlucide ahlucide-quote-icon ahlucide-quote" id="block-quote" xmlns="http://www.w3.org/2000/svg"><path d="M16 3a2 2 0 0 0-2 2v6a2 2 0 0 0 2 2 1 1 0 0 1 1 1v1a2 2 0 0 1-2 2 1 1 0 0 0-1 1v2a1 1 0 0 0 1 1 6 6 0 0 0 6-6V5a2 2 0 0 0-2-2z"/><path d="M5 3a2 2 0 0 0-2 2v6a2 2 0 0 0 2 2 1 1 0 0 1 1 1v1a2 2 0 0 1-2 2 1 1 0 0 0-1 1v2a1 1 0 0 0 1 1 6 6 0 0 0 6-6V5a2 2 0 0 0-2-2z"/></symbol><symbol viewBox="0 0 24 24" fill="none" stroke="currentColor" stroke-width="1.5" stroke-linecap="round" stroke-linejoin="round" class="ailucide ailucide-bookmark-icon ailucide-bookmark" id="bookmark" xmlns="http://www.w3.org/2000/svg"><path d="M17 3a2 2 0 0 1 2 2v15a1 1 0 0 1-1.496.868l-4.512-2.578a2 2 0 0 0-1.984 0l-4.512 2.578A1 1 0 0 1 5 20V5a2 2 0 0 1 2-2z"/></symbol><symbol viewBox="0 0 24 24" fill="none" stroke="currentColor" stroke-width="1.5" stroke-linecap="round" stroke-linejoin="round" class="ajlucide ajlucide-package-icon ajlucide-package" id="bundle" xmlns="http://www.w3.org/2000/svg"><path d="M11 21.73a2 2 0 0 0 2 0l7-4A2 2 0 0 0 21 16V8a2 2 0 0 0-1-1.73l-7-4a2 2 0 0 0-2 0l-7 4A2 2 0 0 0 3 8v8a2 2 0 0 0 1 1.73z"/><path d="M12 22V12"/><polyline points="3.29 7 12 12 20.71 7"/><path d="m7.5 4.27 9 5.15"/></symbol><symbol viewBox="0 0 24 24" fill="none" stroke="currentColor" stroke-width="1.5" stroke-linecap="round" stroke-linejoin="round" class="aklucide aklucide-check-icon aklucide-check" id="check" xmlns="http://www.w3.org/2000/svg"><path d="M20 6 9 17l-5-5"/></symbol><symbol viewBox="0 0 24 24" fill="none" stroke="currentColor" stroke-width="1.5" stroke-linecap="round" stroke-linejoin="round" class="allucide allucide-cloud-download-icon allucide-cloud-download" id="cloud-download" xmlns="http://www.w3.org/2000/svg"><path d="M12 13v8l-4-4"/><path d="m12 21 4-4"/><path d="M4.393 15.269A7 7 0 1 1 15.71 8h1.79a4.5 4.5 0 0 1 2.436 8.284"/></symbol><symbol viewBox="0 0 24 24" fill="none" stroke="currentColor" stroke-width="1.5" stroke-linecap="round" stroke-linejoin="round" class="amlucide amlucide-settings-icon amlucide-settings" id="cog" xmlns="http://www.w3.org/2000/svg"><path d="M9.671 4.136a2.34 2.34 0 0 1 4.659 0 2.34 2.34 0 0 0 3.319 1.915 2.34 2.34 0 0 1 2.33 4.033 2.34 2.34 0 0 0 0 3.831 2.34 2.34 0 0 1-2.33 4.033 2.34 2.34 0 0 0-3.319 1.915 2.34 2.34 0 0 1-4.659 0 2.34 2.34 0 0 0-3.32-1.915 2.34 2.34 0 0 1-2.33-4.033 2.34 2.34 0 0 0 0-3.831A2.34 2.34 0 0 1 6.35 6.051a2.34 2.34 0 0 0 3.319-1.915"/><circle cx="12" cy="12" r="3"/></symbol><symbol viewBox="0 0 24 24" fill="none" stroke="currentColor" stroke-width="1.5" stroke-linecap="round" stroke-linejoin="round" class="anlucide anlucide-library-big-icon anlucide-library-big" id="collection" xmlns="http://www.w3.org/2000/svg"><rect width="8" height="18" x="3" y="3" rx="1"/><path d="M7 3v18"/><path d="M20.4 18.9c.2.5-.1 1.1-.6 1.3l-1.9.7c-.5.2-1.1-.1-1.3-.6L11.1 5.1c-.2-.5.1-1.1.6-1.3l1.9-.7c.5-.2 1.1.1 1.3.6Z"/></symbol><symbol viewBox="0 0 24 24" fill="none" stroke="currentColor" stroke-width="1.5" stroke-linecap="round" stroke-linejoin="round" class="aolucide aolucide-palette-icon aolucide-palette" id="color-palette" xmlns="http://www.w3.org/2000/svg"><path d="M12 22a1 1 0 0 1 0-20 10 9 0 0 1 10 9 5 5 0 0 1-5 5h-2.25a1.75 1.75 0 0 0-1.4 2.8l.3.4a1.75 1.75 0 0 1-1.4 2.8z"/><circle cx="13.5" cy="6.5" r=".5" fill="currentColor"/><circle cx="17.5" cy="10.5" r=".5" fill="currentColor"/><circle cx="6.5" cy="12.5" r=".5" fill="currentColor"/><circle cx="8.5" cy="7.5" r=".5" fill="currentColor"/></symbol><symbol viewBox="0 0 24 24" fill="none" stroke="currentColor" stroke-width="1.5" stroke-linecap="round" stroke-linejoin="round" class="aplucide aplucide-message-circle-icon aplucide-message-circle" id="comment" xmlns="http://www.w3.org/2000/svg"><path d="M2.992 16.342a2 2 0 0 1 .094 1.167l-1.065 3.29a1 1 0 0 0 1.236 1.168l3.413-.998a2 2 0 0 1 1.099.092 10 10 0 1 0-4.777-4.719"/></symbol><symbol viewBox="0 0 24 24" fill="none" stroke="currentColor" stroke-width="1.5" stroke-linecap="round" stroke-linejoin="round" class="aqlucide aqlucide-compass-icon aqlucide-compass" id="compass" xmlns="http://www.w3.org/2000/svg"><circle cx="12" cy="12" r="10"/><path d="m16.24 7.76-1.804 5.411a2 2 0 0 1-1.265 1.265L7.76 16.24l1.804-5.411a2 2 0 0 1 1.265-1.265z"/></symbol><symbol viewBox="0 0 24 24" fill="none" stroke="currentColor" stroke-width="1.5" stroke-linecap="round" stroke-linejoin="round" class="arlucide arlucide-unplug-icon arlucide-unplug" id="connect" xmlns="http://www.w3.org/2000/svg"><path d="m19 5 3-3"/><path d="m2 22 3-3"/><path d="M6.3 20.3a2.4 2.4 0 0 0 3.4 0L12 18l-6-6-2.3 2.3a2.4 2.4 0 0 0 0 3.4Z"/><path d="M7.5 13.5 10 11"/><path d="M10.5 16.5 13 14"/><path d="m12 6 6 6 2.3-2.3a2.4 2.4 0 0 0 0-3.4l-2.6-2.6a2.4 2.4 0 0 0-3.4 0Z"/></symbol><symbol viewBox="0 0 24 24" fill="none" stroke="currentColor" stroke-width="1.5" stroke-linecap="round" stroke-linejoin="round" class="aslucide aslucide-clipboard-copy-icon aslucide-clipboard-copy" id="copy-to-clipboard" xmlns="http://www.w3.org/2000/svg"><rect width="8" height="4" x="8" y="2" rx="1" ry="1"/><path d="M8 4H6a2 2 0 0 0-2 2v14a2 2 0 0 0 2 2h12a2 2 0 0 0 2-2v-2"/><path d="M16 4h2a2 2 0 0 1 2 2v4"/><path d="M21 14H11"/><path d="m15 10-4 4 4 4"/></symbol><symbol viewBox="0 0 24 24" fill="none" stroke="currentColor" stroke-width="1.5" stroke-linecap="round" stroke-linejoin="round" class="atlucide atlucide-credit-card-icon atlucide-credit-card" id="credit-card" xmlns="http://www.w3.org/2000/svg"><rect width="20" height="14" x="2" y="5" rx="2"/><line x1="2" x2="22" y1="10" y2="10"/></symbol><symbol viewBox="0 0 24 24" fill="none" stroke="currentColor" stroke-width="1.5" stroke-linecap="round" stroke-linejoin="round" class="aulucide aulucide-folder-icon aulucide-folder" id="directory" xmlns="http://www.w3.org/2000/svg"><path d="M20 20a2 2 0 0 0 2-2V8a2 2 0 0 0-2-2h-7.9a2 2 0 0 1-1.69-.9L9.6 3.9A2 2 0 0 0 7.93 3H4a2 2 0 0 0-2 2v13a2 2 0 0 0 2 2Z"/></symbol><symbol viewBox="0 0 24 24" fill="none" stroke="currentColor" stroke-width="1.5" stroke-linecap="round" stroke-linejoin="round" class="avlucide avlucide-unplug-icon avlucide-unplug" id="disconnect" xmlns="http://www.w3.org/2000/svg"><path d="m19 5 3-3"/><path d="m2 22 3-3"/><path d="M6.3 20.3a2.4 2.4 0 0 0 3.4 0L12 18l-6-6-2.3 2.3a2.4 2.4 0 0 0 0 3.4Z"/><path d="M7.5 13.5 10 11"/><path d="M10.5 16.5 13 14"/><path d="m12 6 6 6 2.3-2.3a2.4 2.4 0 0 0 0-3.4l-2.6-2.6a2.4 2.4 0 0 0-3.4 0Z"/></symbol><symbol viewBox="0 0 24 24" fill="none" stroke="currentColor" stroke-width="1.5" stroke-linecap="round" stroke-linejoin="round" class="awlucide awlucide-circle-alert-icon awlucide-circle-alert" id="error" xmlns="http://www.w3.org/2000/svg"><circle cx="12" cy="12" r="10"/><line x1="12" x2="12" y1="8" y2="12"/><line x1="12" x2="12.01" y1="16" y2="16"/></symbol><symbol viewBox="0 0 24 24" fill="none" stroke="currentColor" stroke-width="1.5" stroke-linecap="round" stroke-linejoin="round" class="aylucide aylucide-eye-icon aylucide-eye" id="eye" xmlns="http://www.w3.org/2000/svg"><path d="M2.062 12.348a1 1 0 0 1 0-.696 10.75 10.75 0 0 1 19.876 0 1 1 0 0 1 0 .696 10.75 10.75 0 0 1-19.876 0"/><circle cx="12" cy="12" r="3"/></symbol><symbol viewBox="0 0 24 24" fill="none" stroke="currentColor" stroke-width="1.5" stroke-linecap="round" stroke-linejoin="round" class="axlucide axlucide-eye-closed-icon axlucide-eye-closed" id="eye-hide" xmlns="http://www.w3.org/2000/svg"><path d="m15 18-.722-3.25"/><path d="M2 8a10.645 10.645 0 0 0 20 0"/><path d="m20 15-1.726-2.05"/><path d="m4 15 1.726-2.05"/><path d="m9 18 .722-3.25"/></symbol><symbol viewBox="0 0 24 24" fill="none" stroke="currentColor" stroke-width="1.5" stroke-linecap="round" stroke-linejoin="round" class="azlucide azlucide-rss-icon azlucide-rss" id="feed" xmlns="http://www.w3.org/2000/svg"><path d="M4 11a9 9 0 0 1 9 9"/><path d="M4 4a16 16 0 0 1 16 16"/><circle cx="5" cy="19" r="1"/></symbol><symbol viewBox="0 0 24 24" fill="none" stroke="currentColor" stroke-width="1.5" stroke-linecap="round" stroke-linejoin="round" class="balucide balucide-audio-lines-icon balucide-audio-lines" id="frequency" xmlns="http://www.w3.org/2000/svg"><path d="M2 10v3"/><path d="M6 6v11"/><path d="M10 3v18"/><path d="M14 8v7"/><path d="M18 5v13"/><path d="M22 10v3"/></symbol><symbol viewBox="0 0 24 24" fill="none" stroke="currentColor" stroke-width="1.5" stroke-linecap="round" stroke-linejoin="round" class="bblucide bblucide-circle-question-mark-icon bblucide-circle-question-mark" id="help" xmlns="http://www.w3.org/2000/svg"><circle cx="12" cy="12" r="10"/><path d="M9.09 9a3 3 0 0 1 5.83 1c0 2-3 3-3 3"/><path d="M12 17h.01"/></symbol><symbol viewBox="0 0 24 24" fill="none" stroke="currentColor" stroke-width="1.5" stroke-linecap="round" stroke-linejoin="round" class="bclucide bclucide-image-icon bclucide-image" id="image" xmlns="http://www.w3.org/2000/svg"><rect width="18" height="18" x="3" y="3" rx="2" ry="2"/><circle cx="9" cy="9" r="2"/><path d="m21 15-3.086-3.086a2 2 0 0 0-2.828 0L6 21"/></symbol><symbol viewBox="0 0 24 24" fill="none" stroke="currentColor" stroke-width="1.5" stroke-linecap="round" stroke-linejoin="round" class="bdlucide bdlucide-info-icon bdlucide-info" id="info" xmlns="http://www.w3.org/2000/svg"><circle cx="12" cy="12" r="10"/><path d="M12 16v-4"/><path d="M12 8h.01"/></symbol><symbol viewBox="0 0 24 24" fill="none" stroke="currentColor" stroke-width="1.5" stroke-linecap="round" stroke-linejoin="round" class="belucide belucide-key-square-icon belucide-key-square" id="key" xmlns="http://www.w3.org/2000/svg"><path d="M12.4 2.7a2.5 2.5 0 0 1 3.4 0l5.5 5.5a2.5 2.5 0 0 1 0 3.4l-3.7 3.7a2.5 2.5 0 0 1-3.4 0L8.7 9.8a2.5 2.5 0 0 1 0-3.4z"/><path d="m14 7 3 3"/><path d="m9.4 10.6-6.814 6.814A2 2 0 0 0 2 18.828V21a1 1 0 0 0 1 1h3a1 1 0 0 0 1-1v-1a1 1 0 0 1 1-1h1a1 1 0 0 0 1-1v-1a1 1 0 0 1 1-1h.172a2 2 0 0 0 1.414-.586l.814-.814"/></symbol><symbol viewBox="0 0 24 24" fill="none" stroke="currentColor" stroke-width="1.5" stroke-linecap="round" stroke-linejoin="round" class="bflucide bflucide-languages-icon bflucide-languages" id="language" xmlns="http://www.w3.org/2000/svg"><path d="m5 8 6 6"/><path d="m4 14 6-6 2-3"/><path d="M2 5h12"/><path d="M7 2h1"/><path d="m22 22-5-10-5 10"/><path d="M14 18h6"/></symbol><symbol viewBox="0 0 24 24" fill="none" stroke="currentColor" stroke-width="1.5" stroke-linecap="round" stroke-linejoin="round" class="bglucide bglucide-graduation-cap-icon bglucide-graduation-cap" id="learn" xmlns="http://www.w3.org/2000/svg"><path d="M21.42 10.922a1 1 0 0 0-.019-1.838L12.83 5.18a2 2 0 0 0-1.66 0L2.6 9.08a1 1 0 0 0 0 1.832l8.57 3.908a2 2 0 0 0 1.66 0z"/><path d="M22 10v6"/><path d="M6 12.5V16a6 3 0 0 0 12 0v-3.5"/></symbol><symbol viewBox="0 0 24 24" fill="none" stroke="currentColor" stroke-width="1.5" stroke-linecap="round" stroke-linejoin="round" class="bhlucide bhlucide-link-icon bhlucide-link" id="link" xmlns="http://www.w3.org/2000/svg"><path d="M10 13a5 5 0 0 0 7.54.54l3-3a5 5 0 0 0-7.07-7.07l-1.72 1.71"/><path d="M14 11a5 5 0 0 0-7.54-.54l-3 3a5 5 0 0 0 7.07 7.07l1.71-1.71"/></symbol><symbol viewBox="0 0 24 24" fill="none" stroke="currentColor" stroke-width="1.5" stroke-linecap="round" stroke-linejoin="round" class="bilucide bilucide-log-out-icon bilucide-log-out" id="logout" xmlns="http://www.w3.org/2000/svg"><path d="m16 17 5-5-5-5"/><path d="M21 12H9"/><path d="M9 21H5a2 2 0 0 1-2-2V5a2 2 0 0 1 2-2h4"/></symbol><symbol viewBox="0 0 28 28" fill="none" stroke="currentColor" stroke-width="1.5" stroke-linecap="round" stroke-linejoin="round" id="mastodon" xmlns="http://www.w3.org/2000/svg"><path d="M21.944 16.324h-2.706v-6.139c0-1.292-.581-1.951-1.763-1.951-1.3 0-1.951.78-1.951 2.32v3.36h-2.69v-3.36c0-1.54-.651-2.32-1.951-2.32-1.175 0-1.762.659-1.764 1.951v6.139H6.417V9.999q0-1.94 1.068-3.08c.735-.76 1.698-1.15 2.895-1.15 1.384 0 2.43.494 3.128 1.479l.673 1.047.675-1.047c.697-.985 1.743-1.479 3.126-1.479 1.195 0 2.158.39 2.896 1.15q1.068 1.14 1.068 3.08z"/><path d="M25.903 7.246C25.533 4.7 23.14 2.693 20.3 2.305 19.82 2.239 18.006 2 13.802 2c-4.236 0-5.138.239-5.617.305-2.76.378-5.28 2.18-5.892 4.757-.294 1.268-.326 2.675-.27 3.965.077 1.85.092 3.698.273 5.54a24 24 0 0 0 .655 3.634c.58 2.208 2.934 4.046 5.24 4.795a15 15 0 0 0 7.665.375 12 12 0 0 0 .83-.21c.618-.182 1.342-.386 1.875-.743v-1.829l-.02-.05a23.2 23.2 0 0 1-5 .538c-2.883 0-3.66-1.268-3.881-1.796a5.2 5.2 0 0 1-.337-1.415l.044-.053a22.8 22.8 0 0 0 4.919.539 49 49 0 0 0 1.188-.01c1.658-.043 3.405-.121 5.036-.416a1 1 0 0 0 .116-.024c2.573-.458 5.02-1.895 5.27-5.533a96 96 0 0 0 .033-1.649c0-.505.175-3.583-.026-5.474"/></symbol><symbol viewBox="0 0 24 24" fill="none" stroke="currentColor" stroke-width="1.5" stroke-linecap="round" stroke-linejoin="round" class="bklucide bklucide-ellipsis-icon bklucide-ellipsis" id="menu" xmlns="http://www.w3.org/2000/svg"><circle cx="12" cy="12" r="1"/><circle cx="19" cy="12" r="1"/><circle cx="5" cy="12" r="1"/></symbol><symbol viewBox="0 0 24 24" fill="none" stroke="currentColor" stroke-width="1.5" stroke-linecap="round" stroke-linejoin="round" class="bllucide bllucide-newspaper-icon bllucide-newspaper" id="news" xmlns="http://www.w3.org/2000/svg"><path d="M15 18h-5"/><path d="M18 14h-8"/><path d="M4 22h16a2 2 0 0 0 2-2V4a2 2 0 0 0-2-2H8a2 2 0 0 0-2 2v16a2 2 0 0 1-4 0v-9a2 2 0 0 1 2-2h2"/><rect width="8" height="4" x="10" y="6" rx="1"/></symbol><symbol viewBox="0 0 24 24" fill="none" stroke="currentColor" stroke-width="1.5" stroke-linecap="round" stroke-linejoin="round" class="bmlucide bmlucide-notepad-text-icon bmlucide-notepad-text" id="notepad" xmlns="http://www.w3.org/2000/svg"><path d="M8 2v4"/><path d="M12 2v4"/><path d="M16 2v4"/><rect width="16" height="18" x="4" y="4" rx="2"/><path d="M8 10h6"/><path d="M8 14h8"/><path d="M8 18h5"/></symbol><symbol viewBox="0 0 24 24" fill="none" stroke="currentColor" stroke-width="1.5" stroke-linecap="round" stroke-linejoin="round" class="bnlucide bnlucide-pencil-icon bnlucide-pencil" id="pencil" xmlns="http://www.w3.org/2000/svg"><path d="M21.174 6.812a1 1 0 0 0-3.986-3.987L3.842 16.174a2 2 0 0 0-.5.83l-1.321 4.352a.5.5 0 0 0 .623.622l4.353-1.32a2 2 0 0 0 .83-.497z"/><path d="m15 5 4 4"/></symbol><symbol viewBox="0 0 24 24" fill="none" stroke="currentColor" stroke-width="1.5" stroke-linecap="round" stroke-linejoin="round" class="bolucide bolucide-puzzle-icon bolucide-puzzle" id="plugin" xmlns="http://www.w3.org/2000/svg"><path d="M15.39 4.39a1 1 0 0 0 1.68-.474 2.5 2.5 0 1 1 3.014 3.015 1 1 0 0 0-.474 1.68l1.683 1.682a2.414 2.414 0 0 1 0 3.414L19.61 15.39a1 1 0 0 1-1.68-.474 2.5 2.5 0 1 0-3.014 3.015 1 1 0 0 1 .474 1.68l-1.683 1.682a2.414 2.414 0 0 1-3.414 0L8.61 19.61a1 1 0 0 0-1.68.474 2.5 2.5 0 1 1-3.014-3.015 1 1 0 0 0 .474-1.68l-1.683-1.682a2.414 2.414 0 0 1 0-3.414L4.39 8.61a1 1 0 0 1 1.68.474 2.5 2.5 0 1 0 3.014-3.015 1 1 0 0 1-.474-1.68l1.683-1.682a2.414 2.414 0 0 1 3.414 0z"/></symbol><symbol viewBox="0 0 24 24" fill="none" stroke="currentColor" stroke-width="1.5" stroke-linecap="round" stroke-linejoin="round" class="bqlucide bqlucide-plus-icon bqlucide-plus" id="plus" xmlns="http://www.w3.org/2000/svg"><path d="M5 12h14"/><path d="M12 5v14"/></symbol><symbol viewBox="0 0 24 24" fill="none" stroke="currentColor" stroke-width="1.5" stroke-linecap="round" stroke-linejoin="round" class="bplucide bplucide-circle-plus-icon bplucide-circle-plus" id="plus-circle" xmlns="http://www.w3.org/2000/svg"><circle cx="12" cy="12" r="10"/><path d="M8 12h8"/><path d="M12 8v8"/></symbol><symbol viewBox="0 0 24 24" fill="none" stroke="currentColor" stroke-width="1.5" stroke-linecap="round" stroke-linejoin="round" class="brlucide brlucide-square-arrow-out-up-right-icon brlucide-square-arrow-out-up-right" id="pop-out" xmlns="http://www.w3.org/2000/svg"><path d="M21 13v6a2 2 0 0 1-2 2H5a2 2 0 0 1-2-2V5a2 2 0 0 1 2-2h6"/><path d="m21 3-9 9"/><path d="M15 3h6v6"/></symbol><symbol viewBox="0 0 24 24" fill="none" stroke="currentColor" stroke-width="1.5" stroke-linecap="round" stroke-linejoin="round" class="bslucide bslucide-book-open-icon bslucide-book-open" id="reading" xmlns="http://www.w3.org/2000/svg"><path d="M12 7v14"/><path d="M3 18a1 1 0 0 1-1-1V4a1 1 0 0 1 1-1h5a4 4 0 0 1 4 4 4 4 0 0 1 4-4h5a1 1 0 0 1 1 1v13a1 1 0 0 1-1 1h-6a3 3 0 0 0-3 3 3 3 0 0 0-3-3z"/></symbol><symbol viewBox="0 0 24 24" fill="none" stroke="currentColor" stroke-width="1.5" stroke-linecap="round" stroke-linejoin="round" class="btlucide btlucide-recycle-icon btlucide-recycle" id="recycle" xmlns="http://www.w3.org/2000/svg"><path d="M7 19H4.815a1.83 1.83 0 0 1-1.57-.881 1.785 1.785 0 0 1-.004-1.784L7.196 9.5"/><path d="M11 19h8.203a1.83 1.83 0 0 0 1.556-.89 1.784 1.784 0 0 0 0-1.775l-1.226-2.12"/><path d="m14 16-3 3 3 3"/><path d="M8.293 13.596 7.196 9.5 3.1 10.598"/><path d="m9.344 5.811 1.093-1.892A1.83 1.83 0 0 1 11.985 3a1.784 1.784 0 0 1 1.546.888l3.943 6.843"/><path d="m13.378 9.633 4.096 1.098 1.097-4.096"/></symbol><symbol viewBox="0 0 24 24" fill="none" stroke="currentColor" stroke-width="1.5" stroke-linecap="round" stroke-linejoin="round" class="bulucide bulucide-search-icon bulucide-search" id="search" xmlns="http://www.w3.org/2000/svg"><path d="m21 21-4.34-4.34"/><circle cx="11" cy="11" r="8"/></symbol><symbol viewBox="0 0 24 24" fill="none" stroke="currentColor" stroke-width="1.5" stroke-linecap="round" stroke-linejoin="round" class="bvlucide bvlucide-fingerprint-pattern-icon bvlucide-fingerprint-pattern" id="session" xmlns="http://www.w3.org/2000/svg"><path d="M12 10a2 2 0 0 0-2 2c0 1.02-.1 2.51-.26 4"/><path d="M14 13.12c0 2.38 0 6.38-1 8.88"/><path d="M17.29 21.02c.12-.6.43-2.3.5-3.02"/><path d="M2 12a10 10 0 0 1 18-6"/><path d="M2 16h.01"/><path d="M21.8 16c.2-2 .131-5.354 0-6"/><path d="M5 19.5C5.5 18 6 15 6 12a6 6 0 0 1 .34-2"/><path d="M8.65 22c.21-.66.45-1.32.57-2"/><path d="M9 6.8a6 6 0 0 1 9 5.2v2"/></symbol><symbol viewBox="0 0 24 24" fill="none" stroke="currentColor" stroke-width="1.5" stroke-linecap="round" stroke-linejoin="round" class="bwlucide bwlucide-share2-icon bwlucide-share-2" id="share" xmlns="http://www.w3.org/2000/svg"><circle cx="18" cy="5" r="3"/><circle cx="6" cy="12" r="3"/><circle cx="18" cy="19" r="3"/><line x1="8.59" x2="15.42" y1="13.51" y2="17.49"/><line x1="15.41" x2="8.59" y1="6.51" y2="10.49"/></symbol><symbol viewBox="0 0 24 24" fill="none" stroke="currentColor" stroke-width="1.5" stroke-linecap="round" stroke-linejoin="round" class="bxlucide bxlucide-settings2-icon bxlucide-settings-2" id="slider" xmlns="http://www.w3.org/2000/svg"><path d="M14 17H5"/><path d="M19 7h-9"/><circle cx="17" cy="17" r="3"/><circle cx="7" cy="7" r="3"/></symbol><symbol viewBox="0 0 24 24" fill="none" stroke="currentColor" stroke-width="1.5" stroke-linecap="round" stroke-linejoin="round" class="bylucide bylucide-circle-check-icon bylucide-circle-check" id="success" xmlns="http://www.w3.org/2000/svg"><circle cx="12" cy="12" r="10"/><path d="m9 12 2 2 4-4"/></symbol><symbol viewBox="0 0 24 24" fill="none" stroke="currentColor" stroke-width="1.5" stroke-linecap="round" stroke-linejoin="round" class="bzlucide bzlucide-refresh-cw-icon bzlucide-refresh-cw" id="sync" xmlns="http://www.w3.org/2000/svg"><path d="M3 12a9 9 0 0 1 9-9 9.75 9.75 0 0 1 6.74 2.74L21 8"/><path d="M21 3v5h-5"/><path d="M21 12a9 9 0 0 1-9 9 9.75 9.75 0 0 1-6.74-2.74L3 16"/><path d="M8 16H3v5"/></symbol><symbol viewBox="0 0 24 24" fill="none" stroke="currentColor" stroke-width="1.5" stroke-linecap="round" stroke-linejoin="round" class="calucide calucide-x-icon calucide-x" id="times" xmlns="http://www.w3.org/2000/svg"><path d="M18 6 6 18"/><path d="m6 6 12 12"/></symbol><symbol viewBox="0 0 24 24" fill="none" stroke="currentColor" stroke-width="1.5" stroke-linecap="round" stroke-linejoin="round" class="cblucide cblucide-trash-icon cblucide-trash" id="trash" xmlns="http://www.w3.org/2000/svg"><path d="M19 6v14a2 2 0 0 1-2 2H7a2 2 0 0 1-2-2V6"/><path d="M3 6h18"/><path d="M8 6V4a2 2 0 0 1 2-2h4a2 2 0 0 1 2 2v2"/></symbol><symbol viewBox="0 0 24 24" fill="none" stroke="currentColor" stroke-width="1.5" stroke-linecap="round" stroke-linejoin="round" id="uncheck" xmlns="http://www.w3.org/2000/svg"><path d="M11.5 14.5 9 17l-5-5"/><path d="m12 9 5 5"/><path d="m20 6-2.5 2.5"/></symbol><symbol viewBox="0 0 24 24" fill="none" stroke="currentColor" stroke-width="1.5" stroke-linecap="round" stroke-linejoin="round" class="cdlucide cdlucide-upload-icon cdlucide-upload" id="upload" xmlns="http://www.w3.org/2000/svg"><path d="M12 3v12"/><path d="m17 8-5-5-5 5"/><path d="M21 15v4a2 2 0 0 1-2 2H5a2 2 0 0 1-2-2v-4"/></symbol><symbol viewBox="0 0 24 24" fill="none" stroke="currentColor" stroke-width="1.5" stroke-linecap="round" stroke-linejoin="round" class="celucide celucide-users-icon celucide-users" id="users" xmlns="http://www.w3.org/2000/svg"><path d="M16 21v-2a4 4 0 0 0-4-4H6a4 4 0 0 0-4 4v2"/><path d="M16 3.128a4 4 0 0 1 0 7.744"/><path d="M22 21v-2a4 4 0 0 0-3-3.87"/><circle cx="9" cy="7" r="4"/></symbol><symbol viewBox="0 0 24 24" fill="none" stroke="currentColor" stroke-width="1.5" stroke-linecap="round" stroke-linejoin="round" class="cflucide cflucide-wrench-icon cflucide-wrench" id="wrench" xmlns="http://www.w3.org/2000/svg"><path d="M14.7 6.3a1 1 0 0 0 0 1.4l1.6 1.6a1 1 0 0 0 1.4 0l3.106-3.105c.32-.322.863-.22.983.218a6 6 0 0 1-8.259 7.057l-7.91 7.91a1 1 0 0 1-2.999-3l7.91-7.91a6 6 0 0 1 7.057-8.259c.438.12.54.662.219.984z"/></symbol></svg>