<?xml version="1.0" encoding="utf-8"?><svg xmlns="http://www.w3.org/2000/svg" xmlns:xlink="http://www.w3.org/1999/xlink"><symbol viewBox="0 0 36 36" id="angle-down" xmlns="http://www.w3.org/2000/svg"><path d="M29.52 13.48 18 25.4 6.48 13.48"/></symbol><symbol viewBox="0 0 36 36" id="arrow-left" xmlns="http://www.w3.org/2000/svg"><path d="m15.591 8.26-9.61 9.66 9.61 9.66a1 1 0 1 0 1.39-1.41l-7.19-7.25h19.13a1 1 0 1 0 0-2H9.791l7.19-7.25a1 1 0 0 0-1.42-1.41z"/></symbol><symbol viewBox="0 0 36 36" id="avatar" xmlns="http://www.w3.org/2000/svg"><path d="M18 17a7 7 0 1 0-7-7 7 7 0 0 0 7 7Zm0-12a5 5 0 1 1-5 5 5 5 0 0 1 5-5ZM30.47 24.37a17.16 17.16 0 0 0-24.93 0A2 2 0 0 0 5 25.74V31a2 2 0 0 0 2 2h22a2 2 0 0 0 2-2v-5.26a2 2 0 0 0-.53-1.37ZM29 31H7v-5.27a15.17 15.17 0 0 1 22 0Z"/></symbol><symbol viewBox="0 0 36 36" id="backup" xmlns="http://www.w3.org/2000/svg"><path d="M6 22h24v2H6z"/><path d="M30.84 13.37A1.94 1.94 0 0 0 28.93 12h-2.38a3 3 0 0 1-.14 2h2.54c1.05 2.94 2.77 7.65 3.05 8.48V30H4v-7.52C4.28 21.65 7.05 14 7.05 14h2.53a3 3 0 0 1-.14-2H7.07a1.92 1.92 0 0 0-1.9 1.32C2 22 2 22.1 2 22.33V30a2 2 0 0 0 2 2h28a2 2 0 0 0 2-2v-7.67c0-.23 0-.33-3.16-8.96Z"/><path d="m18 19.84 6.38-6.35A1 1 0 1 0 23 12.08L19 16V4a1 1 0 1 0-2 0v12l-4-3.95a1 1 0 0 0-1.41 1.42Z"/></symbol><symbol viewBox="0 0 36 36" id="block-quote" xmlns="http://www.w3.org/2000/svg"><path d="M11.86 16.55a4.31 4.31 0 0 0-2.11.56 14.44 14.44 0 0 1 4.36-6 1.1 1.1 0 0 0-1.4-1.7c-4 3.25-5.78 7.75-5.78 10.54A5.08 5.08 0 0 0 10 24.58a4.4 4.4 0 0 0 1.88.44 4.24 4.24 0 1 0 0-8.47ZM23 16.55a4.29 4.29 0 0 0-2.11.56 14.5 14.5 0 0 1 4.35-6 1.1 1.1 0 1 0-1.39-1.7c-4 3.25-5.78 7.75-5.78 10.54a5.08 5.08 0 0 0 3 4.61A4.37 4.37 0 0 0 23 25a4.24 4.24 0 1 0 0-8.47Z"/></symbol><symbol viewBox="0 0 36 36" id="bookmark" xmlns="http://www.w3.org/2000/svg"><path d="M26 34a2 2 0 0 1-1.41-.58L18 26.82l-6.54 6.52A2 2 0 0 1 8 31.93V4a2 2 0 0 1 2-2h16a2 2 0 0 1 2 2v28a2 2 0 0 1-2 2Zm0-2V4H10v27.93L18 24Z"/></symbol><symbol viewBox="0 0 36 36" id="check" xmlns="http://www.w3.org/2000/svg"><path d="M13.72 27.69 3.29 17.27a1 1 0 0 1 1.41-1.41l9 9L31.29 7.29A1 1 0 0 1 32.7 8.7Z"/></symbol><symbol viewBox="0 0 36 36" id="cog" xmlns="http://www.w3.org/2000/svg"><path d="M18.1 11c-3.9 0-7 3.1-7 7s3.1 7 7 7 7-3.1 7-7-3.1-7-7-7zm0 12c-2.8 0-5-2.2-5-5s2.2-5 5-5 5 2.2 5 5-2.2 5-5 5z"/><path d="m32.8 14.7-2.8-.9-.6-1.5 1.4-2.6c.3-.6.2-1.4-.3-1.9l-2.4-2.4c-.5-.5-1.3-.6-1.9-.3l-2.6 1.4-1.5-.6-.9-2.8C21 2.5 20.4 2 19.7 2h-3.4c-.7 0-1.3.5-1.4 1.2L14 6c-.6.1-1.1.3-1.6.6L9.8 5.2c-.6-.3-1.4-.2-1.9.3L5.5 7.9c-.5.5-.6 1.3-.3 1.9l1.3 2.5c-.2.5-.4 1.1-.6 1.6l-2.8.9c-.6.2-1.1.8-1.1 1.5v3.4c0 .7.5 1.3 1.2 1.5l2.8.9.6 1.5-1.4 2.6c-.3.6-.2 1.4.3 1.9l2.4 2.4c.5.5 1.3.6 1.9.3l2.6-1.4 1.5.6.9 2.9c.2.6.8 1.1 1.5 1.1h3.4c.7 0 1.3-.5 1.5-1.1l.9-2.9 1.5-.6 2.6 1.4c.6.3 1.4.2 1.9-.3l2.4-2.4c.5-.5.6-1.3.3-1.9l-1.4-2.6.6-1.5 2.9-.9c.6-.2 1.1-.8 1.1-1.5v-3.4c0-.7-.5-1.4-1.2-1.6zm-.8 4.7-3.6 1.1-.1.5-.9 2.1-.3.5 1.8 3.3-2 2-3.3-1.8-.5.3c-.7.4-1.4.7-2.1.9l-.5.1-1.1 3.6h-2.8l-1.1-3.6-.5-.1-2.1-.9-.5-.3-3.3 1.8-2-2 1.8-3.3-.3-.5c-.4-.7-.7-1.4-.9-2.1l-.1-.5L4 19.4v-2.8l3.4-1 .2-.5c.2-.8.5-1.5.9-2.2l.3-.5-1.7-3.3 2-2 3.2 1.8.5-.3c.7-.4 1.4-.7 2.2-.9l.5-.2L16.6 4h2.8l1.1 3.5.5.2c.7.2 1.4.5 2.1.9l.5.3 3.3-1.8 2 2-1.8 3.3.3.5c.4.7.7 1.4.9 2.1l.1.5 3.6 1.1v2.8z"/></symbol><symbol viewBox="0 0 36 36" id="collection" xmlns="http://www.w3.org/2000/svg"><path d="m33.48 29.63-6.74-17.81a2 2 0 0 0-2.58-1.16L21 11.85V8.92A1.92 1.92 0 0 0 19.08 7H14V4.92A1.92 1.92 0 0 0 12.08 3H5a2 2 0 0 0-2 2v27a1 1 0 0 0 1 1h16a1 1 0 0 0 1-1V19.27l5 13.21a1 1 0 0 0 1.29.58l5.61-2.14a1 1 0 0 0 .58-1.29ZM12 8.83V31H5V5h7ZM19 31h-5V9h5Zm8.51-.25-6.38-16.83 3.74-1.42 6.39 16.83Z"/></symbol><symbol viewBox="0 0 36 36" id="comment" xmlns="http://www.w3.org/2000/svg"><path d="M18 2.5c-8.82 0-16 6.28-16 14s7.18 14 16 14a18 18 0 0 0 4.88-.68l5.53 3.52a1 1 0 0 0 1.54-.84v-6.73a13 13 0 0 0 4-9.27C34 8.78 26.82 2.5 18 2.5Zm10.29 22.11a1 1 0 0 0-.32.73v5.34l-4.38-2.79a1 1 0 0 0-.83-.11 16 16 0 0 1-4.76.72c-7.72 0-14-5.38-14-12s6.28-12 14-12 14 5.38 14 12a11.08 11.08 0 0 1-3.71 8.11Z"/><path d="M25 15.5H11a1 1 0 0 0 0 2h14a1 1 0 0 0 0-2ZM21.75 20.5h-7.5a1 1 0 0 0 0 2h7.5a1 1 0 0 0 0-2ZM11.28 12.5h13.44a1 1 0 0 0 0-2H11.28a1 1 0 0 0 0 2Z"/></symbol><symbol viewBox="0 0 36 36" id="copy-to-clipboard" xmlns="http://www.w3.org/2000/svg"><path d="M22.6 4h-1.05a3.89 3.89 0 0 0-7.31 0h-.84A2.41 2.41 0 0 0 11 6.4V10h14V6.4A2.41 2.41 0 0 0 22.6 4Zm.4 4H13V6.25a.25.25 0 0 1 .25-.25h2.69l.12-1.11a1.24 1.24 0 0 1 .55-.89 2 2 0 0 1 3.15 1.18l.09.84h2.9a.25.25 0 0 1 .25.25ZM33.25 18.06H21.33l2.84-2.83a1 1 0 1 0-1.42-1.42l-5.25 5.25 5.25 5.25a1 1 0 0 0 .71.29 1 1 0 0 0 .71-1.7l-2.84-2.84h11.92a1 1 0 0 0 0-2Z"/><path d="M29 16h2V6.68A1.66 1.66 0 0 0 29.35 5h-2.27v2H29ZM29 31H7V7h2V5H6.64A1.66 1.66 0 0 0 5 6.67v24.65A1.66 1.66 0 0 0 6.65 33h22.71A1.66 1.66 0 0 0 31 31.33v-9.27h-2Z"/></symbol><symbol viewBox="0 0 36 36" id="credit-card" xmlns="http://www.w3.org/2000/svg"><path d="M32 6H4a2 2 0 0 0-2 2v20a2 2 0 0 0 2 2h28a2 2 0 0 0 2-2V8a2 2 0 0 0-2-2Zm0 2v12H4V8ZM4 28v-4h28v4Z"/></symbol><symbol viewBox="0 0 36 36" id="directory" xmlns="http://www.w3.org/2000/svg"><path d="M30 9H16.42l-2.31-3.18A2 2 0 0 0 12.49 5H6a2 2 0 0 0-2 2v22a2 2 0 0 0 2 2h24a2 2 0 0 0 2-2V11a2 2 0 0 0-2-2Zm0 20H6V13h7.31a2 2 0 0 0 2-2H6V7h6.49l2.61 3.59a1 1 0 0 0 .81.41H30Z"/></symbol><symbol viewBox="0 0 36 36" id="disconnect" xmlns="http://www.w3.org/2000/svg"><path d="M12.17 6A6.21 6.21 0 0 0 6 11H2.13v2H6a6.23 6.23 0 0 0 6.21 5H17V6Zm2.93 10h-2.93a4.2 4.2 0 0 1-4.31-4 4.17 4.17 0 0 1 4.31-4h2.93ZM33.92 23h-3.78a6.25 6.25 0 0 0-6.21-5H19v2h-5a1 1 0 1 0 0 2h5v4h-5a1 1 0 0 0-1 1 1 1 0 0 0 1 1h5v2h4.94a6.23 6.23 0 0 0 6.22-5h3.76Zm-10 5H21v-8h2.94a4.17 4.17 0 0 1 4.31 4 4.17 4.17 0 0 1-4.31 4Z"/></symbol><symbol viewBox="0 0 36 36" id="error" xmlns="http://www.w3.org/2000/svg"><path d="M18 6a12 12 0 1 0 12 12A12 12 0 0 0 18 6Zm0 22a10 10 0 1 1 10-10 10 10 0 0 1-10 10Z"/><path d="M18 20.07a1.3 1.3 0 0 1-1.3-1.3v-6a1.3 1.3 0 1 1 2.6 0v6a1.3 1.3 0 0 1-1.3 1.3Z"/><circle cx="17.95" cy="23.02" r="1.5"/></symbol><symbol viewBox="0 0 36 36" id="error-red" xmlns="http://www.w3.org/2000/svg"><path fill="#b6001f" d="M18 6a12 12 0 1 0 12 12A12 12 0 0 0 18 6Zm0 22a10 10 0 1 1 10-10 10 10 0 0 1-10 10Z"/><path fill="#b6001f" d="M18 20.07a1.3 1.3 0 0 1-1.3-1.3v-6a1.3 1.3 0 1 1 2.6 0v6a1.3 1.3 0 0 1-1.3 1.3Z"/><circle fill="#b6001f" cx="17.95" cy="23.02" r="1.5"/></symbol><symbol viewBox="0 0 36 36" id="eye" xmlns="http://www.w3.org/2000/svg"><path d="M33.62 17.53c-3.37-6.23-9.28-10-15.82-10S5.34 11.3 2 17.53l-.28.47.26.48c3.37 6.23 9.28 10 15.82 10s12.46-3.72 15.82-10l.26-.48Zm-15.82 8.9C12.17 26.43 7 23.29 4 18c3-5.29 8.17-8.43 13.8-8.43S28.54 12.72 31.59 18c-3.05 5.29-8.17 8.43-13.79 8.43Z"/><path d="M18.09 11.17A6.86 6.86 0 1 0 25 18a6.86 6.86 0 0 0-6.91-6.83Zm0 11.72A4.86 4.86 0 1 1 23 18a4.87 4.87 0 0 1-4.91 4.89Z"/></symbol><symbol viewBox="0 0 36 36" id="eye-hide" xmlns="http://www.w3.org/2000/svg"><path d="M25.19 20.4a6.78 6.78 0 0 0 .43-2.4 6.86 6.86 0 0 0-6.86-6.86 6.79 6.79 0 0 0-2.37.43L18 13.23a4.78 4.78 0 0 1 .74-.06A4.87 4.87 0 0 1 23.62 18a4.79 4.79 0 0 1-.06.74Z"/><path d="M34.29 17.53c-3.37-6.23-9.28-10-15.82-10a16.82 16.82 0 0 0-5.24.85L14.84 10a14.78 14.78 0 0 1 3.63-.47c5.63 0 10.75 3.14 13.8 8.43a17.75 17.75 0 0 1-4.37 5.1l1.42 1.42a19.93 19.93 0 0 0 5-6l.26-.48ZM4.87 5.78l4.46 4.46a19.52 19.52 0 0 0-6.69 7.29l-.26.47.26.48c3.37 6.23 9.28 10 15.82 10a16.93 16.93 0 0 0 7.37-1.69l5 5 1.75-1.5-26-26Zm9.75 9.75 6.65 6.65a4.81 4.81 0 0 1-2.5.72A4.87 4.87 0 0 1 13.9 18a4.81 4.81 0 0 1 .72-2.47Zm-1.45-1.45a6.85 6.85 0 0 0 9.55 9.55l1.6 1.6a14.91 14.91 0 0 1-5.86 1.2c-5.63 0-10.75-3.14-13.8-8.43a17.29 17.29 0 0 1 6.12-6.3Z"/></symbol><symbol viewBox="0 0 36 36" id="feed" xmlns="http://www.w3.org/2000/svg"><path d="M10 22a4 4 0 1 0 4 4 4 4 0 0 0-4-4zm0 6a2 2 0 1 1 2-2 2 2 0 0 1-2 2zM8.008 14.82a1.005.995-68.855 0 0 1.12.856 9.818 9.818 0 0 1 8.312 2.805 10.14 10.14 0 0 1 2.871 8.404 1.005.995-68.855 0 0 .865 1.113 1.005.995-68.855 0 0 1.112-.88 12.144 12.144 0 0 0-3.44-10.067 11.794 11.794 0 0 0-9.983-3.362 1.005.995-68.855 0 0-.857 1.132z"/><path d="M5.969 5.343a1 1 0 0 0 1.14.837 19.879 19.879 0 0 1 22.664 22.728 1 1 0 0 0 .834 1.144 1 1 0 0 0 1.143-.834A21.878 21.878 0 0 0 6.806 4.203a1 1 0 0 0-.837 1.14z"/></symbol><symbol viewBox="0 0 36 36" id="feed-stop" xmlns="http://www.w3.org/2000/svg"><path d="M8.008 14.82a1.005.995-68.855 0 0 1.12.856c3.047-.426 6.118.609 8.312 2.805s3.254 5.303 2.871 8.404a1.005.995-68.855 0 0 .865 1.113 1.005.995-68.855 0 0 1.112-.88 12.144 12.144 0 0 0-3.44-10.067 11.794 11.794 0 0 0-9.983-3.362 1.005.995-68.855 0 0-.857 1.132z"/><path d="M5.969 5.343a1 1 0 0 0 1.14.837 19.879 19.879 0 0 1 22.664 22.728 1 1 0 0 0 .834 1.144 1 1 0 0 0 1.143-.834A21.878 21.878 0 0 0 6.806 4.203a1 1 0 0 0-.837 1.14zM11.135 26.004l2.774-2.768c.186-.186.103-.74-.205-1.022-.27-.25-.748-.255-.911-.092l-2.767 2.769s-1.825-1.833-2.765-2.773c-.19-.19-.762-.168-1.03.1-.266.266-.28.825-.09 1.015l2.775 2.77-2.776 2.769c-.216.185-.19.718.091 1.003.29.293.84.333 1.03.111l2.766-2.765 2.772 2.765c.19.163.71.118.983-.159.264-.268.285-.761.127-.946z"/></symbol><symbol viewBox="0 0 36 36" id="help" xmlns="http://www.w3.org/2000/svg"><path d="M18 2a16 16 0 1 0 16 16A16 16 0 0 0 18 2Zm0 30a14 14 0 1 1 14-14 14 14 0 0 1-14 14Z"/><path d="M18.29 8.92a7.38 7.38 0 0 0-5.72 2.57 1 1 0 0 0-.32.71.92.92 0 0 0 .95.92 1.08 1.08 0 0 0 .71-.29 5.7 5.7 0 0 1 4.33-2c2.36 0 3.83 1.52 3.83 3.41v.05c0 2.21-1.76 3.44-4.54 3.65a.8.8 0 0 0-.76.92s0 2.32 0 2.75a1 1 0 0 0 1 .9h.11a1 1 0 0 0 .9-1v-2.06c3-.42 5.43-2 5.43-5.28v-.05c-.03-3-2.37-5.2-5.92-5.2Z"/><circle cx="17.78" cy="26.2" r="1.25"/></symbol><symbol viewBox="0 0 36 36" id="image" xmlns="http://www.w3.org/2000/svg"><path d="M32 4H4a2 2 0 0 0-2 2v24a2 2 0 0 0 2 2h28a2 2 0 0 0 2-2V6a2 2 0 0 0-2-2ZM4 30V6h28v24Z"/><path d="M8.92 14a3 3 0 1 0-3-3 3 3 0 0 0 3 3Zm0-4.6A1.6 1.6 0 1 1 7.33 11a1.6 1.6 0 0 1 1.59-1.59ZM22.78 15.37l-5.4 5.4-4-4a1 1 0 0 0-1.41 0L5.92 22.9v2.83l6.79-6.79L16 22.18l-3.75 3.75H15l8.45-8.45L30 24v-2.82l-5.81-5.81a1 1 0 0 0-1.41 0Z"/></symbol><symbol viewBox="0 0 36 36" id="info" xmlns="http://www.w3.org/2000/svg"><circle cx="17.97" cy="10.45" r="1.4"/><path d="M21 25h-2V14.1h-3a1 1 0 0 0 0 2h1V25h-2a1 1 0 0 0 0 2h6a1 1 0 0 0 0-2Z"/><path d="M18 34a16 16 0 1 1 16-16 16 16 0 0 1-16 16Zm0-30a14 14 0 1 0 14 14A14 14 0 0 0 18 4Z"/></symbol><symbol viewBox="0 0 36 36" id="info-purple" xmlns="http://www.w3.org/2000/svg"><circle fill="#6856c3" cx="17.97" cy="10.45" r="1.4"/><path fill="#6856c3" d="M21 25h-2V14.1h-3a1 1 0 0 0 0 2h1V25h-2a1 1 0 0 0 0 2h6a1 1 0 0 0 0-2Z"/><path fill="#6856c3" d="M18 34a16 16 0 1 1 16-16 16 16 0 0 1-16 16Zm0-30a14 14 0 1 0 14 14A14 14 0 0 0 18 4Z"/></symbol><symbol viewBox="0 0 36 36" id="key" xmlns="http://www.w3.org/2000/svg"><rect x="6.33" y="10.71" width="9.71" height="2.57" rx="1" ry="1" transform="rotate(-45 11.192 12.004)"/><path d="m23.35 16.8.63-.63A5 5 0 0 0 24 9.1l-5.29-5.26a5 5 0 0 0-7.07 0l-8.55 8.55a5 5 0 0 0 0 7.07l5.26 5.26a5 5 0 0 0 7.07 0l.4-.4L18 26.48h3.44v3h3.69v1.63L28 34h6v-6.55ZM32 32h-3.14l-1.77-1.76v-2.8h-3.68v-3H18.8l-3-3-1.8 1.87a3 3 0 0 1-4.24 0L4.5 18a3 3 0 0 1 0-4.24l8.56-8.56a3 3 0 0 1 4.24 0l5.26 5.26a3 3 0 0 1 0 4.24l-2 2L32 28.28Z"/></symbol><symbol viewBox="0 0 36 36" id="language" xmlns="http://www.w3.org/2000/svg"><path d="M30 3H14v5h2V5h14c.6 0 1 .4 1 1v11c0 .6-.4 1-1 1H17v7h-5.3L8 27.9V25H5c-.6 0-1-.4-1-1V13c0-.6.4-1 1-1h13v-2H5c-1.7 0-3 1.3-3 3v11c0 1.7 1.3 3 3 3h1v5.1l6.3-5.1H19v-7h11c1.7 0 3-1.3 3-3V6c0-1.7-1.3-3-3-3z"/><path d="M6.2 22.9h2.4l.6-1.6h3.1l.6 1.6h2.4L11.9 14H9.5l-3.3 8.9zm4.5-6.4 1 3.1h-2l1-3.1zM20 17c1.1 0 2.6-.3 4-1 1.4.7 3 1 4 1v-2s-1 0-2.1-.4c1.2-1.2 2.1-3 2.1-5.6V8h-3V6h-2v2h-3v2h5.9c-.2 1.8-1 2.9-1.9 3.6-.6-.5-1.2-1.2-1.6-2.1h-2.1c.4 1.3 1 2.3 1.8 3.1-1 .4-1.9.4-2.1.4v2z"/></symbol><symbol viewBox="0 0 36 36" id="link" xmlns="http://www.w3.org/2000/svg"><path d="m17.6 24.32-2.46 2.44a4 4 0 0 1-5.62 0 3.92 3.92 0 0 1 0-5.55l4.69-4.65a4 4 0 0 1 5.62 0 3.86 3.86 0 0 1 1 1.71 2 2 0 0 0 .27-.27l1.29-1.28a5.89 5.89 0 0 0-1.15-1.62 6 6 0 0 0-8.44 0l-4.7 4.69a5.91 5.91 0 0 0 0 8.39 6 6 0 0 0 8.44 0l3.65-3.62h-.5a8 8 0 0 1-2.09-.24Z"/><path d="M28.61 7.82a6 6 0 0 0-8.44 0l-3.65 3.62h.49a8 8 0 0 1 2.1.28l2.46-2.44a4 4 0 0 1 5.62 0 3.92 3.92 0 0 1 0 5.55l-4.69 4.65a4 4 0 0 1-5.62 0 3.86 3.86 0 0 1-1-1.71 2 2 0 0 0-.28.23l-1.29 1.28a5.89 5.89 0 0 0 1.15 1.62 6 6 0 0 0 8.44 0l4.69-4.65a5.92 5.92 0 0 0 0-8.39Z"/></symbol><symbol viewBox="0 0 36 36" id="logout" xmlns="http://www.w3.org/2000/svg"><path d="M7 6h16v9.8h2V6a2 2 0 0 0-2-2H7a2 2 0 0 0-2 2v24a2 2 0 0 0 2 2h16a2 2 0 0 0 2-2H7Z"/><path d="M28.16 17.28a1 1 0 0 0-1.41 1.41L30.13 22h-14.5a1 1 0 0 0-1 1 1 1 0 0 0 1 1h14.5l-3.38 3.46a1 1 0 1 0 1.41 1.41l5.84-5.8Z"/></symbol><symbol viewBox="0 0 36 36" id="menu" xmlns="http://www.w3.org/2000/svg"><circle cx="31.1" cy="18" r="2.9"/><circle cx="18" cy="18" r="2.9"/><circle cx="4.9" cy="18" r="2.9"/></symbol><symbol viewBox="0 0 36 36" id="news" xmlns="http://www.w3.org/2000/svg"><path d="M30.6 11.7C29.2 5.8 24 1.7 18 1.7c-7.2 0-13 5.8-13 13 0 6.8 5.3 12.4 12 12.9v5c0 .6.4 1 1 1s1-.4 1-1V18.3l4.7-4.7c.4-.4.4-1 0-1.4-.4-.4-1-.4-1.4 0L19 15.6v-3l-3.3-3.3c-.4-.4-1-.4-1.4 0-.4.4-.4 1 0 1.4l2.7 2.7v6.2l-3.8-3.8c-.4-.4-1-.4-1.4 0-.4.4-.4 1 0 1.4l5.2 5.2v3.2c-5.6-.5-10-5.2-10-10.9 0-6.1 4.9-11 11-11s11 4.9 11 11c0 4.9-3.3 9.2-8 10.6v2.1c7-1.7 11.3-8.7 9.6-15.7z"/></symbol><symbol viewBox="0 0 36 36" id="pencil" xmlns="http://www.w3.org/2000/svg"><path d="M33.87 8.32 28 2.42a2.07 2.07 0 0 0-2.92 0L4.27 23.2l-1.9 8.2a2.06 2.06 0 0 0 2 2.5 2.14 2.14 0 0 0 .43 0l8.29-1.9 20.78-20.76a2.07 2.07 0 0 0 0-2.92ZM12.09 30.2l-7.77 1.63 1.77-7.62L21.66 8.7l6 6ZM29 13.25l-6-6 3.48-3.46 5.9 6Z"/></symbol><symbol viewBox="0 0 36 36" id="plugin" xmlns="http://www.w3.org/2000/svg"><path d="M29.81 16H29V8.83a2 2 0 0 0-2-2h-6A5.14 5.14 0 0 0 16.51 2 5 5 0 0 0 11 6.83H4a2 2 0 0 0-2 2V17h2.81A3.13 3.13 0 0 1 8 19.69 3 3 0 0 1 7.22 22 3 3 0 0 1 5 23H2v8.83a2 2 0 0 0 2 2h23a2 2 0 0 0 2-2V26h1a5 5 0 0 0 5-5.51A5.15 5.15 0 0 0 29.81 16Zm2.41 7A3 3 0 0 1 30 24h-3v7.83H4V25h1a5 5 0 0 0 5-5.51A5.15 5.15 0 0 0 4.81 15H4V8.83h9V7a3 3 0 0 1 1-2.22A3 3 0 0 1 16.31 4 3.13 3.13 0 0 1 19 7.19v1.64h8V18h2.81A3.13 3.13 0 0 1 33 20.69a3 3 0 0 1-.78 2.31Z"/></symbol><symbol viewBox="0 0 36 36" id="plus" xmlns="http://www.w3.org/2000/svg"><path d="M30 17H19V6a1 1 0 1 0-2 0v11H6a1 1 0 0 0-1 1 .91.91 0 0 0 1 .94h11V30a1 1 0 1 0 2 0V19h11a1 1 0 0 0 1-1 1 1 0 0 0-1-1Z"/></symbol><symbol viewBox="0 0 36 36" id="plus-circle" xmlns="http://www.w3.org/2000/svg"><path d="M26.17 17H19V9.83a1 1 0 0 0-2 0V17H9.83a1 1 0 0 0 0 2H17v7.17a1 1 0 0 0 2 0V19h7.17a1 1 0 0 0 0-2Z"/><path d="M18 2a16 16 0 1 0 16 16A16 16 0 0 0 18 2Zm0 30a14 14 0 1 1 14-14 14 14 0 0 1-14 14Z"/></symbol><symbol viewBox="0 0 36 36" id="pop-out" xmlns="http://www.w3.org/2000/svg"><path d="M25.5 30.5H7.17a1.67 1.67 0 0 1-1.67-1.67V10.5a1.67 1.67 0 0 1 1.67-1.67h8.33v1.67H7.17v18.33H25.5V20.5h1.67v8.33a1.67 1.67 0 0 1-1.67 1.67z"/><path d="M18 5.5a.83.83 0 0 0 0 1.67h9.66L16.12 18.71a.83.83 0 1 0 1.17 1.17L28.83 8.34V18a.83.83 0 0 0 1.67 0V5.5Z"/></symbol><symbol viewBox="0 0 36 36" id="recycle" xmlns="http://www.w3.org/2000/svg"><path d="M6.4 17.4c.2.1.3.1.5.1s.4-.1.5-.1l7-4.1c.3-.2.5-.5.5-.9s-.2-.7-.5-.9L11.9 10 14 6.2c.4-.7 1-1.3 1.7-1.7 2-1.1 4.5-.3 5.6 1.7.3.5.9.6 1.4.3h.1c.4-.3.5-.9.3-1.3-.6-1-1.4-1.9-2.4-2.4-3-1.6-6.7-.6-8.3 2.4L9.6 9.9c-.3.5-.1 1.1.3 1.4l2 1.2-4 2.4V8.2c0-.6-.4-1-1-1-.5.1-.9.5-.9 1.1v8.3c0 .3.2.6.4.8zM32.1 21l-3.5-6.2c-.1-.2-.4-.4-.6-.5-.3-.1-.5 0-.8.1L25 15.7V11l5.5 3.3c.1 0 .1.1.2.1.5.2 1.1 0 1.3-.5.2-.5 0-1.1-.5-1.3l-7-4.2c-.3-.2-.7-.2-1 0-.4.1-.5.4-.5.8v8.3c0 .4.1.8.4 1 .3.2.7.2 1 0l2.9-1.7 3 5.3c.7 1.3.7 2.8 0 4.1-.6 1.2-1.9 1.9-3.2 1.9h-.9c-.5 0-1.2.4-1.2 1 .1.6.6 1 1.2 1h.9c2.1 0 4-1.1 5-2.9 1.1-2 1.1-4.3 0-6.2zM22.4 28.2l-7-4.2c-.3-.2-.7-.2-1 0-.3.2-.4.5-.4.9v3.3H9.1c-1.5-.1-2.9-.9-3.6-2.3-.8-1.4-.8-3.2 0-4.6.3-.5.1-1.1-.4-1.4-.5-.3-1.1-.1-1.4.4-1.2 2.1-1.1 4.6.1 6.6C4.9 28.8 7 30 9.2 30H15c.6 0 1-.4 1-1v-2.4l4 2.4-5.6 3.3c-.3.2-.5.5-.5.9 0 .6.5 1 1 1 .2 0 .3-.1.5-.2l7-4.2c.2-.1.3-.2.4-.4.3-.4.1-1-.4-1.2z"/></symbol><symbol viewBox="0 0 36 36" id="search" xmlns="http://www.w3.org/2000/svg"><path d="M16.33 5.05A10.95 10.95 0 1 1 5.39 16 11 11 0 0 1 16.33 5.05m0-2.05a13 13 0 1 0 13 13 13 13 0 0 0-13-13ZM35 33.29l-7.37-7.42-1.42 1.41 7.37 7.42A1 1 0 1 0 35 33.29Z"/></symbol><symbol viewBox="0 0 36 36" id="share" xmlns="http://www.w3.org/2000/svg"><path d="M27.53 24a5 5 0 0 0-3.6 1.55l-12.19-6.1a4.47 4.47 0 0 0 0-2.8l12.21-6.21a5.12 5.12 0 1 0-1.07-1.7l-12.09 6.15a5 5 0 1 0 0 6.33l12.06 6.07a4.93 4.93 0 0 0-.31 1.71 5 5 0 1 0 5-5Zm0-20a3 3 0 1 1-3 3 3 3 0 0 1 3-3ZM7 21a3 3 0 1 1 3-3 3 3 0 0 1-3 3Zm20.53 11a3 3 0 1 1 3-3 3 3 0 0 1-3 3Z"/></symbol><symbol viewBox="0 0 36 36" id="slider" xmlns="http://www.w3.org/2000/svg"><path d="M12 12.37a4 4 0 0 0-3-3.89V5a1 1 0 1 0-2 0v3.48a4 4 0 0 0 0 7.78V31a1 1 0 1 0 2 0V16.26a4 4 0 0 0 3-3.89Zm-4 2a2 2 0 1 1 2-2 2 2 0 0 1-2 2.03ZM32 15.83a4 4 0 0 0-3-3.89V5a1 1 0 1 0-2 0v6.94a4 4 0 0 0 0 7.78V31a1 1 0 1 0 2 0V19.72a4 4 0 0 0 3-3.89Zm-4 2a2 2 0 1 1 2-2 2 2 0 0 1-2 2.04ZM22 24.5a4 4 0 0 0-3-3.89V5a1 1 0 1 0-2 0v15.61a4 4 0 0 0 0 7.78V31a1 1 0 1 0 2 0v-2.61a4 4 0 0 0 3-3.89Zm-4 2a2 2 0 1 1 2-2 2 2 0 0 1-2 2.03Z"/></symbol><symbol viewBox="0 0 36 36" id="success" xmlns="http://www.w3.org/2000/svg"><path d="M18 6a12 12 0 1 0 12 12A12 12 0 0 0 18 6Zm0 22a10 10 0 1 1 10-10 10 10 0 0 1-10 10Z"/><path d="m16.34 23.74-5-5a1 1 0 0 1 1.41-1.41l3.59 3.59 6.78-6.78a1 1 0 0 1 1.41 1.41Z"/></symbol><symbol viewBox="0 0 36 36" id="success-green" xmlns="http://www.w3.org/2000/svg"><path fill="#00826c" d="M18 6a12 12 0 1 0 12 12A12 12 0 0 0 18 6Zm0 22a10 10 0 1 1 10-10 10 10 0 0 1-10 10Z"/><path fill="#00826c" d="m16.34 23.74-5-5a1 1 0 0 1 1.41-1.41l3.59 3.59 6.78-6.78a1 1 0 0 1 1.41 1.41Z"/></symbol><symbol viewBox="0 0 36 36" id="sync" xmlns="http://www.w3.org/2000/svg"><path d="M32.84 15.72a1 1 0 1 0-2 .29 13.15 13.15 0 0 1 .16 1.93A13 13 0 0 1 8.7 27h5.36a1 1 0 0 0 0-2h-9v9a1 1 0 1 0 2 0v-5.8a15 15 0 0 0 25.78-12.48ZM30.06 1A1.05 1.05 0 0 0 29 2v5.83A14.94 14.94 0 0 0 3 17.94a15.16 15.16 0 0 0 .2 2.48 1 1 0 0 0 1 .84h.16a1 1 0 0 0 .82-1.15A13.23 13.23 0 0 1 5 17.94a13 13 0 0 1 13-13A12.87 12.87 0 0 1 27.44 9h-5.38a1 1 0 0 0 0 2H31V2a1 1 0 0 0-.94-1Z"/></symbol><symbol viewBox="0 0 36 36" id="times" xmlns="http://www.w3.org/2000/svg"><path d="m19.41 18 8.29-8.29a1 1 0 0 0-1.41-1.41L18 16.59l-8.29-8.3a1 1 0 0 0-1.42 1.42l8.3 8.29-8.3 8.29A1 1 0 1 0 9.7 27.7l8.3-8.29 8.29 8.29a1 1 0 0 0 1.41-1.41Z"/></symbol><symbol viewBox="0 0 36 36" id="trash" xmlns="http://www.w3.org/2000/svg"><path d="M27.14 34H8.86A2.93 2.93 0 0 1 6 31V11.23h2V31a.93.93 0 0 0 .86 1h18.28a.93.93 0 0 0 .86-1V11.23h2V31a2.93 2.93 0 0 1-2.86 3ZM30.78 9H5a1 1 0 0 1 0-2h25.78a1 1 0 0 1 0 2Z"/><path d="M21 13h2v15h-2zM13 13h2v15h-2zM23 5.86h-1.9V4h-6.2v1.86H13V4a2 2 0 0 1 1.9-2h6.2A2 2 0 0 1 23 4Z"/></symbol><symbol viewBox="0 0 36 36" id="uncheck" xmlns="http://www.w3.org/2000/svg"><path d="M13.72 27.69 3.29 17.27a1 1 0 0 1 1.41-1.41l9 9L31.29 7.29A1 1 0 0 1 32.7 8.7ZM30.486 24.29l4.146-4.134c.401-.467-.437-1.304-.905-.904l-4.145 4.135-4.145-4.139c-.474-.472-1.384.436-.911.908l4.05 4.134-4.05 4.134c-.547.467.437 1.449.906.903l4.15-4.134 4.144 4.134c.469.4 1.306-.436.905-.903z"/></symbol><symbol viewBox="0 0 36 36" id="undo" xmlns="http://www.w3.org/2000/svg"><path d="M20.87 11.14h-13l5.56-5.49A1 1 0 0 0 12 4.22l-8 7.91L12 20a1 1 0 0 0 1.41-1.42l-5.55-5.44h13a9.08 9.08 0 0 1 9.13 9 9 9 0 0 1-5 8 1 1 0 0 0 .94 1.86 11 11 0 0 0-5.06-20.82Z"/></symbol><symbol viewBox="0 0 36 36" id="upload" xmlns="http://www.w3.org/2000/svg"><path d="M31 31H5a1 1 0 0 0 0 2h26a1 1 0 0 0 0-2ZM8.81 15 17 6.83v20.65a1 1 0 0 0 2 0V6.83L27.19 15a1 1 0 0 0 1.41-1.41L18 3 7.39 13.61A1 1 0 1 0 8.81 15Z"/></symbol><symbol viewBox="0 0 36 36" id="wrench" xmlns="http://www.w3.org/2000/svg"><path d="M33.18 26.11 20.35 13.28A9.28 9.28 0 0 0 7.54 2.79l-1.34.59 5.38 5.38-2.82 2.83-5.38-5.38-.59 1.33a9.27 9.27 0 0 0 10.49 12.81l12.83 12.83a2 2 0 0 0 2.83 0l4.24-4.24a2 2 0 0 0 0-2.83Zm-5.66 5.66L13.88 18.12l-.57.16a7.27 7.27 0 0 1-9.31-7 7.2 7.2 0 0 1 .15-1.48l4.61 4.61 5.66-5.66-4.61-4.6a7.27 7.27 0 0 1 8.47 9.16l-.16.57 13.65 13.65Z"/><circle cx="27.13" cy="27.09" r="1.3" transform="rotate(-45 27.132 27.092)"/></symbol></svg>