<svg viewBox="0 0 36 36" xmlns="http://www.w3.org/2000/svg" width="36" height="36"><path d="M21 23H19V15H16C15.45 15 15 15.45 15 16C15 16.55 15.45 17 16 17H17V23H15C14.45 23 14 23.45 14 24C14 24.55 14.45 25 15 25H21C21.55 25 22 24.55 22 24C22 23.45 21.55 23 21 23ZM17.93 13.3C18.7 13.3 19.33 12.67 19.33 11.9C19.33 11.13 18.7 10.5 17.93 10.5C17.16 10.5 16.53 11.13 16.53 11.9C16.53 12.67 17.16 13.3 17.93 13.3ZM18 6C11.38 6 6 11.38 6 18C6 24.62 11.38 30 18 30C24.62 30 30 24.62 30 18C30 11.38 24.62 6 18 6ZM18 28C12.49 28 8 23.51 8 18C8 12.49 12.49 8 18 8C23.51 8 28 12.49 28 18C28 23.51 23.51 28 18 28Z"></path></svg>