<?xml version="1.0" encoding="UTF-8"?>
<svg version="1.1" viewBox="0 0 221.1 74.8" xml:space="preserve" xmlns="http://www.w3.org/2000/svg">
<linearGradient id="e" x1="37.5" x2="37.5" y1="73.63" y2="16.98" gradientUnits="userSpaceOnUse">
	<stop stop-color="#00B8A8" offset="0"/>
	<stop stop-color="#00D7AD" offset="1"/>
</linearGradient>
<path d="m37.4 0c-20.7 0-37.4 16.7-37.4 37.4s16.7 37.4 37.4 37.4 37.4-16.7 37.4-37.4c0.1-20.7-16.7-37.4-37.4-37.4zm6.8 15.8c2.4 0 4.4 2 4.4 4.4s-2 4.4-4.4 4.4-4.4-2-4.4-4.4 2-4.4 4.4-4.4zm-13 0c2.4 0 4.4 2 4.4 4.4s-2 4.4-4.4 4.4-4.4-2-4.4-4.4 2-4.4 4.4-4.4zm-12.7 12.7c1.5-1.2 3.8-1 5 0.5 0.1 0.1 5.6 6.5 13.2 6.8 5 0.2 10-2.2 14.9-7.1 1.4-1.4 3.6-1.4 5 0s1.4 3.6 0 5c-6.1 6.1-12.5 9.2-19.2 9.2h-1c-10.9-0.5-18-9-18.3-9.4-1.3-1.5-1.1-3.7 0.4-5zm18.8 29.9h-1.6c-16.5-0.8-27.4-13.7-27.8-14.3-1.3-1.5-1-3.8 0.5-5 1.5-1.3 3.8-1 5 0.5 0.1 0.2 9.5 11.1 22.7 11.7 8.6 0.4 17.2-3.6 25.5-12 1.4-1.4 3.6-1.4 5 0s1.4 3.6 0 5c-9.2 9.4-19.1 14.1-29.3 14.1z" fill="url(#e)"/>
<g>
	<linearGradient id="d" x1="99.3" x2="99.3" y1="73.63" y2="16.98" gradientUnits="userSpaceOnUse">
		<stop stop-color="#00B8A8" offset="0"/>
		<stop stop-color="#00D7AD" offset="1"/>
	</linearGradient>
	<path d="m109.5 4.3c-12.4 0-18.7 6.3-18.7 18.7v1.7h-1.6c-1.2 0-2.2 0.4-3 1.2s-1.2 1.8-1.2 3 0.4 2.2 1.2 3 1.8 1.2 3 1.2h1.6v28.4c0 0.6 0.1 1.1 0.3 1.6s0.5 1 0.9 1.4 0.8 0.7 1.3 0.9 1.1 0.3 1.7 0.3 1.1-0.1 1.7-0.3c0.5-0.2 1-0.5 1.3-0.9 0.4-0.4 0.7-0.8 0.9-1.4 0.2-0.5 0.3-1.1 0.3-1.6v-28.4h7.4c1.2 0 2.2-0.4 3-1.2s1.2-1.8 1.2-3-0.4-2.2-1.2-3-1.8-1.2-3-1.2h-7.4v-1.7c0-6.9 3.4-10.3 10.3-10.3 1.2 0 2.2-0.4 3-1.2s1.2-1.8 1.2-3-0.4-2.2-1.2-3c-0.9-0.8-1.9-1.2-3-1.2z" fill="url(#d)"/>
	<linearGradient id="c" x1="157.29" x2="157.29" y1="73.63" y2="16.98" gradientUnits="userSpaceOnUse">
		<stop stop-color="#00B8A8" offset="0"/>
		<stop stop-color="#00D7AD" offset="1"/>
	</linearGradient>
	<path d="m173.3 22.6c-1.2 0-2.2 0.4-3 1.2s-1.2 1.8-1.2 3v18.9c0 1.6-0.3 3.1-0.9 4.5s-1.5 2.7-2.5 3.7c-1.1 1.1-2.3 1.9-3.7 2.5s-2.9 0.9-4.5 0.9-3.2-0.3-4.6-0.9-2.7-1.5-3.7-2.5c-1.1-1.1-1.9-2.3-2.5-3.7s-0.9-2.9-0.9-4.6v-18.9c0-1.2-0.4-2.2-1.2-3s-1.8-1.2-3-1.2-2.2 0.4-3 1.2-1.2 1.8-1.2 3v18.9c0 2.7 0.5 5.4 1.6 7.8s2.5 4.6 4.3 6.4 4 3.3 6.4 4.4 5.1 1.6 7.8 1.6c2.3 0 4.5-0.3 6.5-0.9 1.8-0.6 3.6-1.5 5.3-2.8 0.1 1 0.5 1.8 1.2 2.5 0.8 0.8 1.8 1.2 3 1.2s2.2-0.4 3-1.2 1.2-1.8 1.2-3v-34.9c0-1.2-0.4-2.2-1.2-3-1.1-0.7-2.1-1.1-3.2-1.1z" fill="url(#c)"/>
	<linearGradient id="b" x1="203.29" x2="203.29" y1="73.63" y2="16.98" gradientUnits="userSpaceOnUse">
		<stop stop-color="#00B8A8" offset="0"/>
		<stop stop-color="#00D7AD" offset="1"/>
	</linearGradient>
	<path d="m218.4 46.3-0.3-0.4c-0.9-1-2.6-1.9-5.1-2.9l-17.9-5.9c-0.6-0.2-0.8-0.6-0.8-1.2 0-0.7 0.2-1.1 0.5-1.5 2.1-2.2 5-3.3 8.6-3.3s6.8 1.3 9.3 3.8c0.5 0.5 1.1 1 1.7 1.5s1.4 0.7 2.2 0.7c1.2 0 2.2-0.4 3-1.2s1.2-1.8 1.2-3c0-1-0.3-1.9-0.9-2.6-4.6-5.2-10.2-7.8-16.6-7.8-2.1 0-4.2 0.3-6.3 0.9s-4 1.5-5.7 2.6-3.1 2.5-4.1 4.1c-1.1 1.6-1.6 3.4-1.6 5.4 0 2.5 0.9 4.8 2.6 6.7l0.4 0.4c1 1 2.7 2 5.1 2.9l17.9 5.9c0.6 0.2 0.9 0.6 0.9 1.3 0 0.6-0.2 1-0.5 1.4-2.2 2.2-5.1 3.4-8.6 3.4-3.7 0-6.8-1.3-9.3-3.8-0.5-0.5-1-0.9-1.6-1.4s-1.4-0.8-2.3-0.8c-1.2 0-2.2 0.4-3 1.2s-1.2 1.8-1.2 3c0 1 0.3 1.9 0.9 2.6 4.5 5.1 10.1 7.7 16.6 7.7 2.1 0 4.2-0.3 6.3-0.9s4-1.5 5.6-2.6c1.7-1.1 3.1-2.5 4.1-4.1 1.1-1.6 1.6-3.4 1.6-5.4-0.2-2.6-1-4.8-2.7-6.7z" fill="url(#b)"/>
	<linearGradient id="a" x1="124.72" x2="124.72" y1="73.63" y2="16.98" gradientUnits="userSpaceOnUse">
		<stop stop-color="#00B8A8" offset="0"/>
		<stop stop-color="#00D7AD" offset="1"/>
	</linearGradient>
	<path d="m124.7 4.2c-1.2 0-2.2 0.4-3 1.2s-1.2 1.8-1.2 3v53.4c0 0.6 0.1 1.1 0.3 1.6s0.5 1 0.9 1.4 0.8 0.7 1.3 0.9 1.1 0.3 1.7 0.3 1.1-0.1 1.7-0.3c0.5-0.2 1-0.5 1.3-0.9 0.4-0.4 0.7-0.8 0.9-1.4 0.2-0.5 0.3-1.1 0.3-1.6v-53.4c0-1.2-0.4-2.2-1.2-3-0.8-0.7-1.8-1.2-3-1.2z" fill="url(#a)"/>
</g>
</svg>
