<svg class="icon icon--collection-plus" width="36" height="36" aria-hidden="true" version="1.1" viewBox="0 0 36 36" xmlns="http://www.w3.org/2000/svg"><path class="clr-i-outline clr-i-outline-path-1" d="M33.48,29.63,26.74,11.82a2,2,0,0,0-2.58-1.16L21,11.85V8.92A1.92,1.92,0,0,0,19.08,7H14V4.92A1.92,1.92,0,0,0,12.08,3H5A2,2,0,0,0,3,5V32a1,1,0,0,0,1,1H20a1,1,0,0,0,1-1V19.27l5,13.21a1,1,0,0,0,1.29.58l5.61-2.14a1,1,0,0,0,.58-1.29ZM12,8.83V31H5V5h7ZM19,31H14V9h5Zm8.51-.25L21.13,13.92l3.74-1.42,6.39,16.83Z"/><g transform="translate(1.808 .6653)" fill="none" stroke="#000" stroke-linecap="round" stroke-width="1.6"><path d="m32.274 5.8703h-9.093"/><path d="m27.728 10.417v-9.093"/></g></svg>
