<svg width="36" height="36" viewBox="0 0 36 36" xmlns="http://www.w3.org/2000/svg"><path transform="matrix(-.39985 -.91658 .91246 -.40917 0 0)" d="m-16.801 1.4141a1 1 0 0 0-1.2383 0.68359c-0.85784 2.9641-3.0589 5.3654-5.9609 6.498s-6.1711 0.86254-8.8438-0.72852a1 1 0 0 0-1.3691 0.34766 1 1 0 0 0 0.34766 1.3711c3.2031 1.9069 7.1179 2.2296 10.594 0.87305 3.4758-1.3565 6.1207-4.2422 7.1523-7.8066a1 1 0 0 0-0.68164-1.2383z"/><path transform="rotate(247.37)" d="m-7.2285 3.4531a1 1 0 0 0-1.2109 0.73047c-1.522 6.1589-5.8896 11.221-11.76 13.627s-12.533 1.8656-17.939-1.4531a1 1 0 0 0-1.377 0.33008 1 1 0 0 0 0.33008 1.375c5.9492 3.6516 13.287 4.2452 19.746 1.5977 6.4589-2.6475 11.267-8.2195 12.941-14.996a1 1 0 0 0-0.73047-1.2109z"/><path d="m11.135 26.004s1.8491-1.8455 2.7736-2.7683c0.18618-0.18583 0.10311-0.73877-0.20485-1.0221-0.27031-0.24866-0.74749-0.2551-0.9107-0.09178-0.9222 0.92292-2.7666 2.7688-2.7666 2.7688s-1.8256-1.8324-2.7659-2.7728c-0.18969-0.18969-0.76144-0.16809-1.0287 0.09953-0.2665 0.26687-0.28072 0.82613-0.091542 1.0152l2.7752 2.7714-2.7752 2.768c-0.21596 0.18494-0.1906 0.71812 0.090918 1.0033 0.28929 0.29306 0.84051 0.33282 1.0306 0.11089l2.7647-2.7656 2.7723 2.7656c0.19053 0.16316 0.71088 0.11773 0.98302-0.15877 0.26372-0.26796 0.28493-0.76176 0.12681-0.9464z"/></svg>
