<svg class="icon icon--feed" aria-hidden="true" version="1.1" width="36px" height="36px" viewBox="0 0 36 36" xmlns="http://www.w3.org/2000/svg"><g fill="none" fill-rule="evenodd"><g transform="translate(2 3)" fill="#000" fill-rule="nonzero"><path id="Oval-path" d="m4.2667 22.448c-2.3564 0-4.2667 1.9144-4.2667 4.2759s1.9103 4.2759 4.2667 4.2759c2.3564 0 4.2667-1.9144 4.2667-4.2759s-1.9103-4.2759-4.2667-4.2759zm0 2.3323c1.0711 0 1.9394 0.87017 1.9394 1.9436s-0.8683 1.9436-1.9394 1.9436c-1.0711 0-1.9394-0.87017-1.9394-1.9436s0.8683-1.9436 1.9394-1.9436z"/><path id="Path" d="m1.7974 0.087458c4.6595-0.3913 10.199 0.4786 15.523 3.6636 1.7802 1.0649 3.453 2.359 4.9981 3.897 6.0235 5.9957 9.2552 13.25 9.6615 21.687l0.019978 0.47882-3.315 0.11715c-0.27554-7.7995-3.1658-14.416-8.7064-19.932-1.3515-1.3453-2.8099-2.4736-4.3608-3.4013-4.6438-2.7778-9.5159-3.543-13.543-3.2048l-0.28068 0.026609-0.2238 0.027043-0.50384-3.279 0.21276-0.028324 0.33049-0.035404c0.060062-0.0057236 0.12259-0.011332 0.18753-0.016786z"/><path d="m10.294 13.755c1.2394 0.70599 2.3865 1.6002 3.4196 2.6959 3.3804 3.585 5.211 7.9208 5.4686 12.938l0.018224 0.43172-3.2507 0.11046c-0.14582-4.3977-1.667-8.1081-4.5889-11.207-0.80767-0.85655-1.6988-1.5512-2.6619-2.0999-2.3524-1.34-4.8402-1.7056-6.893-1.5316l-0.24781 0.026032-0.49108-3.2548 0.14426-0.019419 0.32324-0.032876c2.6457-0.22427 5.7571 0.23297 8.7594 1.9432z"/></g></g></svg>
