<svg width="36" height="36" viewBox="0 0 36 36" xmlns="http://www.w3.org/2000/svg"><path d="m10 22a4 4 0 1 0 4 4 4 4 0 0 0-4-4zm0 6a2 2 0 1 1 2-2 2 2 0 0 1-2 2z"/><path transform="matrix(-.39985 -.91658 .91246 -.40917 0 0)" d="m-16.801 1.4141a1 1 0 0 0-1.2383 0.68359c-0.85784 2.9641-3.0589 5.3654-5.9609 6.498-2.902 1.1326-6.1711 0.86254-8.8438-0.72852a1 1 0 0 0-1.3691 0.34766 1 1 0 0 0 0.34766 1.3711c3.2031 1.9069 7.1179 2.2296 10.594 0.87305 3.4758-1.3565 6.1207-4.2422 7.1523-7.8066a1 1 0 0 0-0.68164-1.2383z"/><path transform="rotate(247.37)" d="m-7.2285 3.4531a1 1 0 0 0-1.2109 0.73047c-1.522 6.1589-5.8896 11.221-11.76 13.627s-12.533 1.8656-17.939-1.4531a1 1 0 0 0-1.377 0.33008 1 1 0 0 0 0.33008 1.375c5.9492 3.6516 13.287 4.2452 19.746 1.5977 6.4589-2.6475 11.267-8.2195 12.941-14.996a1 1 0 0 0-0.73047-1.2109z"/></svg>
