<svg width="36" height="36" viewBox="0 0 36 36" xmlns="http://www.w3.org/2000/svg"><path d="M18,2A16,16,0,1,0,34,18,16,16,0,0,0,18,2Zm0,30A14,14,0,1,1,32,18,14,14,0,0,1,18,32Z"></path><path d="M18.29,8.92a7.38,7.38,0,0,0-5.72,2.57,1,1,0,0,0-.32.71.92.92,0,0,0,.95.92,1.08,1.08,0,0,0,.71-.29,5.7,5.7,0,0,1,4.33-2c2.36,0,3.83,1.52,3.83,3.41v.05c0,2.21-1.76,3.44-4.54,3.65a.8.8,0,0,0-.76.92s0,2.32,0,2.75a1,1,0,0,0,1,.9h.11a1,1,0,0,0,.9-1V19.45c3-.42,5.43-2,5.43-5.28v-.05C24.18,11.12,21.84,8.92,18.29,8.92Z"></path><circle cx="17.78" cy="26.2" r="1.25"></circle></svg>
