<svg width="36" height="36" viewBox="0 0 36 36" xmlns="http://www.w3.org/2000/svg"><rect x="6" y="22" width="24" height="2"></rect><path d="M30.84,13.37A1.94,1.94,0,0,0,28.93,12H26.55a3,3,0,0,1-.14,2h2.54C30,16.94,31.72,21.65,32,22.48V30H4V22.48C4.28,21.65,7.05,14,7.05,14H9.58a3,3,0,0,1-.14-2H7.07a1.92,1.92,0,0,0-1.9,1.32C2,22,2,22.1,2,22.33V30a2,2,0,0,0,2,2H32a2,2,0,0,0,2-2V22.33C34,22.1,34,22,30.84,13.37Z"></path><path d="M18,19.84l6.38-6.35A1,1,0,1,0,23,12.08L19,16V4a1,1,0,1,0-2,0V16l-4-3.95a1,1,0,0,0-1.41,1.42Z"></path></svg>
