<svg width="36" height="36" xmlns="http://www.w3.org/2000/svg"><rect x="6.33" y="10.71" width="9.71" height="2.57" rx="1" ry="1" transform="rotate(-45 11.192 12.004)"/><path d="m23.35 16.8.63-.63A5 5 0 0 0 24 9.1l-5.29-5.26a5 5 0 0 0-7.07 0l-8.55 8.55a5 5 0 0 0 0 7.07l5.26 5.26a5 5 0 0 0 7.07 0l.4-.4L18 26.48h3.44v3h3.69v1.63L28 34h6v-6.55ZM32 32h-3.14l-1.77-1.76v-2.8h-3.68v-3H18.8l-3-3-1.8 1.87a3 3 0 0 1-4.24 0L4.5 18a3 3 0 0 1 0-4.24l8.56-8.56a3 3 0 0 1 4.24 0l5.26 5.26a3 3 0 0 1 0 4.24l-2 2L32 28.28Z"/></svg>