<svg class="icon icon--trash" aria-hidden="true" width="36" height="36" xmlns="http://www.w3.org/2000/svg"><path class="clr-i-outline clr-i-outline-path-1" d="M27.14 34H8.86A2.93 2.93 0 0 1 6 31V11.23h2V31a.93.93 0 0 0 .86 1h18.28a.93.93 0 0 0 .86-1V11.23h2V31a2.93 2.93 0 0 1-2.86 3Z"/><path class="clr-i-outline clr-i-outline-path-2" d="M30.78 9H5a1 1 0 0 1 0-2h25.78a1 1 0 0 1 0 2Z"/><path class="clr-i-outline clr-i-outline-path-3" d="M21 13h2v15h-2z"/><path class="clr-i-outline clr-i-outline-path-4" d="M13 13h2v15h-2z"/><path class="clr-i-outline clr-i-outline-path-5" d="M23 5.86h-1.9V4h-6.2v1.86H13V4a2 2 0 0 1 1.9-2h6.2A2 2 0 0 1 23 4Z"/></svg>