<?xml version="1.0" encoding="UTF-8"?>
<svg version="1.1" viewBox="0 0 74.8 74.8" xml:space="preserve" xmlns="http://www.w3.org/2000/svg">
<linearGradient id="e" x1="37.5" x2="37.5" y1="73.63" y2="16.98" gradientUnits="userSpaceOnUse">
	<stop stop-color="#00B8A8" offset="0"/>
	<stop stop-color="#00D7AD" offset="1"/>
</linearGradient>
<path d="M 37.4,0 C 16.7,0 0,16.7 0,37.4 0,58.1 16.7,74.8 37.4,74.8 58.1,74.8 74.8,58.1 74.8,37.4 74.9,16.7 58.1,0 37.4,0 Z m 6.8,15.8 c 2.4,0 4.4,2 4.4,4.4 0,2.4 -2,4.4 -4.4,4.4 -2.4,0 -4.4,-2 -4.4,-4.4 0,-2.4 2,-4.4 4.4,-4.4 z m -13,0 c 2.4,0 4.4,2 4.4,4.4 0,2.4 -2,4.4 -4.4,4.4 -2.4,0 -4.4,-2 -4.4,-4.4 0,-2.4 2,-4.4 4.4,-4.4 z M 18.5,28.5 c 1.5,-1.2 3.8,-1 5,0.5 0.1,0.1 5.6,6.5 13.2,6.8 5,0.2 10,-2.2 14.9,-7.1 1.4,-1.4 3.6,-1.4 5,0 1.4,1.4 1.4,3.6 0,5 -6.1,6.1 -12.5,9.2 -19.2,9.2 h -1 C 25.5,42.4 18.4,33.9 18.1,33.5 16.8,32 17,29.8 18.5,28.5 Z M 37.3,58.4 H 35.7 C 19.2,57.6 8.3,44.7 7.9,44.1 c -1.3,-1.5 -1,-3.8 0.5,-5 1.5,-1.3 3.8,-1 5,0.5 0.1,0.2 9.5,11.1 22.7,11.7 8.6,0.4 17.2,-3.6 25.5,-12 1.4,-1.4 3.6,-1.4 5,0 1.4,1.4 1.4,3.6 0,5 -9.2,9.4 -19.1,14.1 -29.3,14.1 z" fill="url(#e)"/>
</svg>
