<?xml version="1.0" standalone="no"?>
<!DOCTYPE svg PUBLIC "-//W3C//DTD SVG 20010904//EN"
 "http://www.w3.org/TR/2001/REC-SVG-20010904/DTD/svg10.dtd">
<svg version="1.0" xmlns="http://www.w3.org/2000/svg"
 width="700.000000pt" height="700.000000pt" viewBox="0 0 700.000000 700.000000"
 preserveAspectRatio="xMidYMid meet">
<metadata>
Created by potrace 1.11, written by Peter Selinger 2001-2013
</metadata>
<g transform="translate(0.000000,700.000000) scale(0.100000,-0.100000)"
fill="#000000" stroke="none">
<path d="M3278 6995 c-1 -1 -41 -5 -88 -9 -97 -8 -98 -8 -325 -42 -16 -3 -37
-7 -45 -9 -8 -2 -26 -6 -40 -8 -79 -14 -260 -63 -388 -106 -156 -52 -387 -146
-413 -168 -8 -7 -20 -13 -26 -13 -11 0 -60 -25 -183 -95 -821 -465 -1419
-1247 -1660 -2170 -33 -127 -73 -342 -86 -460 -26 -246 -26 -667 1 -826 2 -13
6 -46 9 -74 29 -251 129 -617 241 -880 101 -236 232 -469 380 -675 47 -65 91
-125 98 -132 7 -7 46 -53 87 -103 295 -354 695 -662 1134 -875 220 -106 422
-181 641 -237 102 -26 108 -27 185 -43 25 -5 54 -11 65 -14 11 -2 43 -7 70
-11 76 -10 117 -16 150 -20 178 -26 690 -26 833 -1 24 5 99 15 147 21 60 8
176 33 305 65 1147 292 2071 1150 2449 2276 38 114 82 275 105 382 8 39 19 98
21 112 1 8 7 47 13 85 30 184 37 283 37 530 0 322 -17 492 -76 769 -33 155
-116 427 -158 521 -5 11 -15 36 -21 55 -21 57 -157 333 -204 412 -286 484
-640 860 -1098 1166 -59 40 -110 72 -114 72 -4 0 -15 6 -23 14 -21 17 -129 77
-256 139 -251 124 -553 228 -820 282 -44 9 -89 19 -100 21 -11 2 -38 6 -60 9
-22 3 -51 7 -65 10 -13 2 -52 7 -86 11 -33 3 -74 8 -90 10 -32 5 -540 14 -546
9z m-244 -1489 c36 -9 114 -53 152 -86 52 -45 93 -104 118 -172 21 -56 25 -81
23 -155 -3 -75 -8 -98 -34 -153 -90 -187 -297 -280 -491 -221 -217 66 -339
293 -273 509 41 135 141 232 286 280 32 11 172 9 219 -2z m1268 -23 c142 -67
231 -192 243 -342 9 -123 -40 -247 -131 -330 -89 -82 -169 -111 -293 -108 -73
2 -96 7 -154 34 -195 93 -289 313 -216 510 27 73 50 107 108 161 86 81 163
110 286 108 78 -2 99 -6 157 -33z m-2279 -1086 c55 -11 120 -53 181 -115 90
-94 143 -144 221 -207 39 -31 79 -63 89 -72 43 -35 191 -127 279 -173 151 -79
321 -136 492 -165 78 -13 336 -14 416 -1 150 24 368 101 519 183 76 42 298
186 310 202 3 3 37 31 75 63 39 31 113 97 165 146 124 118 178 146 286 149 86
2 144 -17 214 -69 37 -27 93 -109 108 -158 28 -88 15 -199 -33 -272 -40 -60
-182 -196 -345 -329 -148 -120 -232 -179 -425 -296 -25 -15 -243 -122 -270
-133 -11 -4 -33 -13 -50 -20 -56 -23 -254 -85 -310 -96 -163 -33 -295 -47
-465 -48 -95 0 -246 10 -272 18 -7 3 -31 7 -53 10 -22 3 -62 10 -90 16 -27 7
-60 14 -73 16 -55 11 -276 88 -372 131 -279 125 -562 319 -790 544 -178 175
-214 237 -213 360 1 90 33 169 95 231 39 39 121 83 168 90 32 4 106 2 143 -5z
m-887 -1013 c37 -18 78 -50 122 -97 372 -395 813 -710 1237 -881 50 -20 99
-41 110 -46 42 -18 214 -70 315 -94 333 -79 646 -89 995 -31 11 2 52 11 90 20
39 9 81 19 95 21 14 3 90 27 170 54 502 169 950 462 1449 947 48 46 108 93
140 110 49 24 67 28 141 27 63 0 97 -6 130 -21 66 -30 131 -93 165 -159 26
-52 30 -69 30 -144 0 -137 -27 -178 -271 -410 -390 -371 -839 -678 -1266 -864
-295 -128 -617 -221 -878 -252 -19 -2 -44 -6 -55 -8 -75 -17 -487 -25 -637
-13 -215 18 -445 64 -683 139 -479 149 -966 424 -1380 779 -232 198 -419 396
-464 490 -70 149 -2 343 152 428 85 47 200 49 293 5z"/>
</g>
</svg>
