<?xml version="1.0" encoding="UTF-8"?>
<svg width="36px" height="36px" viewBox="0 0 36 36" version="1.1" xmlns="http://www.w3.org/2000/svg" xmlns:xlink="http://www.w3.org/1999/xlink">
    <title>icone_rss</title>
    <g id="icone_rss" stroke="none" stroke-width="1" fill="none" fill-rule="evenodd">
        <g id="Group" transform="translate(2.000000, 3.000000)" fill="#000000" fill-rule="nonzero">
            <path d="M4.26666667,22.4482759 C1.91025173,22.4482759 0,24.3626445 0,26.7241379 C0,29.0856313 1.91025173,31 4.26666667,31 C6.6230816,31 8.53333333,29.0856313 8.53333333,26.7241379 C8.53333333,24.3626445 6.6230816,22.4482759 4.26666667,22.4482759 Z M4.26666667,24.7805643 C5.33776436,24.7805643 6.20606061,25.6507318 6.20606061,26.7241379 C6.20606061,27.797544 5.33776436,28.6677116 4.26666667,28.6677116 C3.19556897,28.6677116 2.32727273,27.797544 2.32727273,26.7241379 C2.32727273,25.6507318 3.19556897,24.7805643 4.26666667,24.7805643 Z" id="Oval-path"></path>
            <path d="M1.79744615,0.0874584826 C6.45698351,-0.303841982 11.9961334,0.566063207 17.3204687,3.75101964 C19.1006743,4.81591827 20.7734229,6.10999688 22.3185504,7.6480158 C28.3420071,13.6437604 31.5737557,20.8982424 31.9800216,29.3350683 L32,29.8138867 L28.6850474,29.9310345 C28.4095056,22.1315178 25.5192847,15.5145934 19.9786618,9.99946118 C18.6271196,8.65413703 17.1687246,7.52588754 15.6178662,6.59818176 C10.9741041,3.82033641 6.10199609,3.05518795 2.0749837,3.39336998 L1.79430594,3.41997918 L1.57050884,3.44702181 L1.06666667,0.167972372 L1.27942537,0.139648652 L1.60991554,0.104244659 C1.66997744,0.0985210464 1.73250158,0.0929124232 1.79744615,0.0874584826 Z" id="Path"></path>
            <path d="M10.2935558,13.7548695 C11.5329158,14.4608587 12.6800399,15.3550655 13.7131975,16.4507575 C17.093602,20.0357692 18.9242132,24.3715608 19.1817761,29.3888545 L19.2,29.8205757 L15.9493382,29.9310345 C15.8035182,25.5333737 14.2823355,21.8228852 11.3604842,18.7241817 C10.5528164,17.8676279 9.66168434,17.1729721 8.6985347,16.6243234 C6.34617679,15.284326 3.85838367,14.9187228 1.80555896,15.0927304 L1.55774509,15.1187619 L1.06666667,11.8639528 L1.21092869,11.8445337 L1.53416582,11.8116578 C4.17991516,11.5873909 7.29123455,12.0446268 10.2935558,13.7548695 Z" id="Path"></path>
        </g>
    </g>
</svg>