<svg id="a525f49c-389c-445f-ad2c-d5c197cff10c" width="760" height="677.41" data-name="Layer 1" version="1.1" viewBox="0 0 760 677.41" xmlns="http://www.w3.org/2000/svg">
 <title>cup_of_tea</title>
 <path transform="translate(-220 -111.29)" d="m859.79 738.38c0 12.573-116.41 50.323-260 50.323s-260-37.75-260-50.323 116.41 4.7926 260 4.7926 260-17.365 260-4.7926z" fill="#3f3d56"/>
 <path transform="translate(-220 -111.29)" d="m859.79 738.38c0 12.573-116.41 50.323-260 50.323s-260-37.75-260-50.323 116.41 4.7926 260 4.7926 260-17.365 260-4.7926z" opacity=".2"/>
 <ellipse cx="379.79" cy="627.09" rx="260" ry="22.765" fill="#3f3d56"/>
 <ellipse cx="377.79" cy="629.37" rx="107" ry="10" opacity=".2"/>
 <path transform="translate(-220 -111.29)" d="m806.17 510.92h-116.88v0.74024h-279.5v40.5c0 104.11 84.394 188.5 188.5 188.5h3.6e-4a188.41 188.41 0 0 0 162.83-93.5h45.047a68.12 68.12 0 1 0 0-136.24zm0 115.24h-34.467a187.88 187.88 0 0 0 15.088-74v-20.24h19.38a47.12 47.12 0 1 1 0 94.24z" fill="#3f3d56"/>
 <path transform="translate(-220 -111.29)" d="m427.29 529.16v23c0 94.29 76.71 171 171 171 94.29 0 171-76.71 171-171v-23z" fill="#7762df"/>
 <path transform="translate(-220 -111.29)" d="m553.58 691.83-39.148-40.346a21.391 21.391 0 0 1 0.45594-30.248l59.21-57.451a15.071 15.071 0 0 1 4.9029-3.179l12.861-5.139a15.071 15.071 0 0 1 16.409 3.5002l40.881 42.133a15.071 15.071 0 0 1 3.2094 16.01l-4.3262 11.002a15.071 15.071 0 0 1-3.5307 5.3011l-60.675 58.873a21.391 21.391 0 0 1-30.248-0.45584z" fill="#e6e6e6"/>
 <rect transform="translate(389.29 -379.79) rotate(45.864)" x="608.31" y="583.78" width="27.31" height="4.0966" fill="#3f3d56"/>
 <path transform="translate(-220 -111.29)" d="m623.82 586.86c3.4622-8.2124 13.778-9.9818 21.45-11.61 8.1562-1.7308 17.446-4.7423 20.834-13.224a11.24 11.24 0 0 0-1.0954-10.726c-1.9939-2.8597-5.3506-5.1868-8.9803-4.8617-7.5954 0.68014-8.9483 9.6512-6.0467 15.312 3.9167 7.6415 13.975 8.3073 21.502 8.4958 7.2716 0.18213 15.075-0.09679 21.72-3.3821a17.838 17.838 0 0 0 10.014-16.838c-0.23351-7.3374-3.4713-14.183-5.4042-21.155-1.8577-6.7015-2.4421-14.132 2.5038-19.706 4.7923-5.4004 12.346-7.5331 19.234-8.6225 1.7684-0.27972 3.5485-0.47027 5.3328-0.61378 1.9113-0.15373 1.9278-3.1551 0-3-12.77 1.0271-29.506 5.4268-31.34 20.507-0.83842 6.8928 1.7663 13.694 3.8677 20.129 1.9531 5.9814 4.2382 12.871 1.7391 19.041-2.6236 6.4769-9.4162 9.1121-15.851 10.1a63.179 63.179 0 0 1-10.472 0.567 48.155 48.155 0 0 1-12.063-1.2121c-3.3872-0.929-6.6527-2.7078-8.2587-5.9579-1.1802-2.3883-1.5573-5.6104-0.23424-8.0224a5.1905 5.1905 0 0 1 7.3258-1.8305 8.5832 8.5832 0 0 1 4.3638 8.2719c-1.0969 8.4984-10.813 11.911-17.925 13.496-7.8345 1.7461-16.674 3.0258-22.27 9.437a16.803 16.803 0 0 0-2.839 4.6071 1.5101 1.5101 0 0 0 1.0477 1.8452 1.5372 1.5372 0 0 0 1.8452-1.0477z" fill="#3f3d56"/>
 <g fill="#e6e6e6">
  <circle cx="282.79" cy="452.37" r="11"/>
  <circle cx="484.79" cy="493.37" r="11"/>
  <circle cx="429.79" cy="551.37" r="8"/>
  <path transform="translate(-220 -111.29)" d="m364.61 734.9c32.668 7.2877 68.72 1.9033 68.72 1.9033s-16.913-17.2-49.581-24.488-68.72-1.9033-68.72-1.9033 16.913 17.2 49.581 24.488z"/>
 </g>
 <g fill="#7762df">
  <path transform="translate(-220 -111.29)" d="m367.83 747.19c35.566 1.0262 65.746-10.436 65.746-10.436a173.12 173.12 0 0 0-63.051-14.152c-35.566-1.0262-65.746 10.436-65.746 10.436a173.12 173.12 0 0 0 63.051 14.152z"/>
  <path transform="translate(-220 -111.29)" d="m370.36 722.64c25.408 12.81 62.827 14.411 62.827 14.411s-3.7762-19.167-29.185-31.977-62.827-14.411-62.827-14.411 3.7762 19.167 29.185 31.977z"/>
  <path transform="translate(-220 -111.29)" d="m426.79 529.66v23c0 94.29 76.71 171 171 171 94.29 0 171-76.71 171-171v-23z" opacity=".3"/>
 </g>
 <g fill="#ccc4f3">
  <path transform="translate(-220 -111.29)" d="m340.13 572.31c-5.8075 9.0124-12.27 9.3008-17.741 5.7755q-0.19061-0.12283-0.37607-0.24961-0.37394-0.255-0.72573-0.5269c-4.6654-3.604-6.3702-9.3841-0.96931-17.766 5.5893-8.6739 21.82-13.707 23.03-14.072h0.00168l0.06935-0.02079s2.5183 17.848-3.2887 26.86z"/>
  <path transform="translate(-220 -111.29)" d="m743.13 341.13c-5.8075 9.0124-12.27 9.3008-17.741 5.7755q-0.19061-0.12283-0.37607-0.24962-0.37393-0.255-0.72573-0.52689c-4.6654-3.604-6.3702-9.3841-0.96931-17.766 5.5893-8.6739 21.82-13.707 23.03-14.072h0.00168l0.06935-0.0208s2.5183 17.848-3.2887 26.86z"/>
  <path transform="translate(-220 -111.29)" d="m513.17 274.25c7.2627 7.887 5.9168 14.215 1.1293 18.623q-0.16682 0.15362-0.33616 0.30123-0.3408 0.29781-0.69244 0.56994c-4.6612 3.6094-10.684 3.8061-17.439-3.5287-6.9899-7.5906-7.7799-24.565-7.8299-25.828l4.7e-4 -0.00162-0.0027-0.07234s17.908 2.0502 25.17 9.9365z"/>
 </g>
 <path transform="translate(-220 -111.29)" d="m751.18 528.04-17.229 8.691a7.0984 7.0984 0 0 1-9.6301-2.7872l-11.856-23.504a4.5162 4.5162 0 0 1-0.47664-1.8082l-0.22625-4.4635a5.1902 5.1902 0 0 1 2.9298-4.8154l17.992-9.0758a5.2081 5.2081 0 0 1 5.4777 0.39819l3.0438 2.3123a4.5246 4.5246 0 0 1 1.3071 1.5655l12.15 24.086a7.0984 7.0984 0 0 1-3.4818 9.4012z" fill="#e6e6e6"/>
 <rect transform="translate(-366.36 268.44) rotate(-26.768)" x="720.11" y="496.77" width="9.3746" height="1.3072" fill="#3f3d56"/>
 <g fill="#7762df">
  <rect transform="translate(-369.28 267.51) rotate(-26.507)" x="719.13" y="503.29" width="20.748" height="5.9998"/>
  <rect transform="translate(-371.98 270.03) rotate(-26.507)" x="723.13" y="510.29" width="20.748" height="5.9998"/>
  <rect transform="translate(-375.13 272.66) rotate(-26.507)" x="727.13" y="518.29" width="20.748" height="5.9998"/>
 </g>
</svg>
