<svg xmlns="http://www.w3.org/2000/svg" width="802.00074" height="833.53979" viewBox="0 0 802.00074 833.53979" xmlns:xlink="http://www.w3.org/1999/xlink" role="img" artist="Katerina Limpitsouni" source="https://undraw.co/"><path d="M1000.99986,465.7699a399.03666,399.03666,0,0,1-34.16,162.19018c-.95,2.1399-1.91,4.27-2.9,6.3899-.14.33007-.3.65991-.45.99-.38.81005-.76,1.62988-1.15,2.43994-.28.59009-.56,1.16992-.85,1.76q-1.035,2.16027-2.1,4.3-1.17,2.35509-2.37,4.7-1.2,2.34009-2.43,4.67016-1.08,2.02479-2.17,4.04-1.41,2.595-2.87,5.18994-1.25994,2.22-2.53,4.40992-1.36506,2.34008-2.76,4.67993l-.09.15014c-.2.33985-.4.67994-.61,1.01978-.19.31006-.37.61011-.56.92017s-.37.6101-.56.90991v.01c-.61,1-1.22,1.98-1.83,2.97l-.01.01c-1.37,2.19995-2.77,4.39013-4.18,6.56006q-3.93,6.06006-8.07,11.93994c0,.01-.01.01-.02.02-1.65,2.3601-3.34,4.69995-5.04,7.02q-1.63494,2.22-3.3,4.42016-1.665,2.2046-3.36,4.36988c-.25.33007-.51.65991-.77.99-1.44,1.84008-2.9,3.67993-4.38,5.49-.31995.40014-.64.79-.94995,1.17993-.49006.59009-.97,1.18017-1.45,1.76-.16.19995-.32.39013-.49.59009-.82.98-1.64,1.96-2.48,2.93994v.01q-1.215,1.43994-2.46,2.88012c-.18.21-.36005.41993-.55005.62989-.27.32006-.55.62988-.83.95-.69.81006-1.4,1.6101-2.12,2.41015-.01.01-.01.01978-.02.03l-.03.02979v.01025a401.77668,401.77668,0,0,1-72.53,64.21973,2.74669,2.74669,0,0,1-.28.19018c-.33.24-.66.46-.99.68995-2.38995,1.63989-4.8,3.26-7.23,4.84008-1.19.77979-2.38,1.54981-3.58,2.31006v.00977c-.01,0-.01,0-.02.01h-.02l-.02.02-.06.03c-.03.02-.05.03-.08.05005-.92.59008-1.83,1.16992-2.75994,1.75-.28.18994-.56.3601-.84.53-.49.31006-.99.61988-1.49.92994-.49.3-.99.6101-1.49.90991-.63.38013-1.26.77-1.89,1.14013q-2.055,1.24512-4.12,2.46c-.5.3-1.01.59008-1.52.89013-.5.2898-1.01.57984-1.52.86988a.09191.09191,0,0,1-.06006.04l-.02.01-.02.02h-.01c-1.4.79981-2.79,1.59986-4.2,2.37989l-.01.01c-1.13.63012-2.26,1.25-3.4,1.87011q-4.05,2.205-8.15,4.32984c-1.9.99023-3.81006,1.95019-5.73,2.90014-1.16.57984-2.33008,1.14991-3.5,1.72-.97.47-1.95008.93995-2.92005,1.39991-.27.13012-.53.26-.79993.38012-.44006.21-.89013.41993-1.33007.61988-.37.16992-.73.34009-1.1.51-.88.42016-1.77.82007-2.65,1.22-.99.45019-1.97.89013-2.96,1.33008-3.72,1.66015-7.48,3.26-11.25,4.8a392.10662,392.10662,0,0,1-41.23,14.26c-.65014.18995-1.31005.37989-1.97009.56006q-8.985,2.5199-18.1,4.60987-15.915,3.65991-32.12,6.01c-.02,0-.04993.01-.06994.01-1.29.18994-2.59009.37011-3.88013.55-.10987.02-.23.04-.34986.05005-.01.00977-.02.00977-.04,0h-.01c-1.43006.18994-2.86011.37989-4.30005.56006-.1.01978-.19995.02979-.3.0398-1.33985.15991-2.68994.32007-4.03992.47-1.45007.16015-2.9.31006-4.36.46h-.01c-2.22.22021-4.43995.43017-6.66.61011-.03992,0-.07995.01-.12.01-.88.08007-1.76.14013-2.64.21h-.00989q-15.52513,1.2301-31.34008,1.22-17.17493,0-34-1.42993c-.04,0-.08008-.01-.12-.01q-3.585-.29994-7.16-.65992c-.62989-.06-1.25-.13012-1.87989-.18994-.12011-.01025-.24011-.02-.3601-.04-.18994-.02-.38-.04-.58-.06006-.1-.01-.21008-.02-.30994-.04-.83007-.08985-1.66015-.17994-2.5-.28-.93-.11011-1.87011-.22-2.8-.34009-.93006-.10986-1.87012-.23-2.8-.35986-.2-.02-.40992-.04-.61-.08008-.68005-.08008-1.36-.16992-2.03-.27-.33-.04-.65-.08985-.97-.13989-.65-.09009-1.28992-.17994-1.94006-.28-.02,0-.04993-.01-.06995-.01a395.15046,395.15046,0,0,1-60.28992-13.59009h-.01c-1.07006-.32984-2.14013-.66992-3.21008-1.00977q-.47991-.13513-.96-.3-4.17-1.33519-8.29-2.76Q463.425,842.97,457.81992,840.84c-1.02-.39014-2.03-.78-3.05-1.16993-2.03-.8-4.05-1.60009-6.06006-2.41992q-5.14489-2.10021-10.22-4.33008h-.01v-.01c-2.66992-1.17993-5.33-2.38012-7.97-3.63012-.48-.22-.96-.43994-1.43995-.66992a1.00521,1.00521,0,0,1-.26-.12012c-.01,0-.01-.00977-.02-.00977-.69007-.32007-1.38-.65014-2.07007-.98l-.02-.01025q-5.295-2.53491-10.5-5.23-6.4499-3.33-12.78992-6.8999-5.25-2.955-10.4-6.07007-6.1051-3.68994-12.08008-7.59986-1.86-1.21509-3.72-2.46c-1.11988-.75-2.23-1.5-3.34-2.26025q-5.88006-4.01989-11.61-8.25-5.92493-4.36487-11.67994-8.94995-7.5-5.97-14.70007-12.28-13.4251-11.72974-25.75-24.63989c-.26-.27-.52-.54-.78-.82007-.81994-.85987-1.63-1.72-2.43994-2.58985-1.18-1.26-2.35-2.54-3.51-3.82006q-2.88006-3.13514-5.66-6.34009h-.01v-.01c-1.13-1.2898-2.23-2.57007-3.35-3.86988v-.01c-.16-.17993-.30994-.3601-.46008-.54-.71-.83008-1.3999-1.65015-2.08985-2.49v-.01c-.94006-1.11011-1.8601-2.22-2.76-3.34009-.20007-.24-.39013-.47-.58007-.71h-.01v-.01c-.74-.89991-1.47-1.80982-2.18994-2.72-.37012-.44995-.73-.90992-1.09009-1.37012h-.01v-.00977q-3.2699-4.125-6.40991-8.33007v-.01c-.58008-.77-1.15-1.54-1.71-2.32007h-.01q-4.02009-5.42982-7.83008-10.99v-.01q-1.43994-2.08485-2.85-4.19995-1.41009-2.11488-2.78992-4.24h-.01q-1.4251-2.19-2.82006-4.39991c-.05-.08007-.1-.15014-.14-.22021q-1.38006-2.17492-2.72-4.37988c-.72009-1.16993-1.43-2.33008-2.12-3.5-.48-.79-.95-1.57007-1.41-2.37012-.17-.27-.31994-.5398-.47-.79981-1.05994-1.81-2.1-3.62011-3.14-5.43994-1.21-2.14013-2.41-4.3-3.58008-6.4602-.48-.8899-.96-1.7898-1.42993-2.68994-.16993-.29-.32007-.57984-.47-.88013-.56006-1.05982-1.12-2.11987-1.67005-3.18994-.54992-1.06006-1.1-2.12989-1.64-3.2s-1.08-2.1399-1.61-3.22c-.4-.81006-.79992-1.62989-1.19006-2.43995a2.16122,2.16122,0,0,1-.10986-.21c-.18006-.38012-.37012-.75-.54-1.13012a.6596.6596,0,0,1-.09009-.18994c-.40991-.84009-.80994-1.67017-1.2-2.51-.52-1.08008-1.02-2.16993-1.52-3.26-.36-.76-.7-1.53-1.04993-2.3q-.75-1.62012-1.47009-3.27c-.51-1.12989-1-2.27-1.49-3.40991-.12989-.29-.25-.57007-.36988-.86011-.2301-.52-.45007-1.04-.67-1.56006-.59-1.37988-1.17-2.77979-1.74011-4.16992q-.97485-2.35475-1.8999-4.72-.88513-2.205-1.72-4.41993l-.21-.54v-.01a399.23691,399.23691,0,0,1-19.64013-70.46v-.01a399.86727,399.86727,0,0,1-5.32-41.48c-.05994-.76-.11-1.52-.16-2.28q-.98987-14.11524-.97-28.34009,0-6.31494.2-12.57007a399.1451,399.1451,0,0,1,88.48-238.96q3.61523-4.48462,7.36011-8.85987,4.11-4.79993,8.36-9.47,2.93994-3.23987,5.95-6.40014a1.35561,1.35561,0,0,1,.12-.11988q.31494-.345.66-.69018a399.58737,399.58737,0,0,1,39.15-35.88989c1.57995-1.28,3.15991-2.53,4.76-3.76,1.41992-1.10987,2.84-2.21,4.27-3.28q2.48987-1.89,5.01-3.73,13.125-9.61488,27.02991-18.15992,5.805-3.56982,11.74011-6.93994c1.44-.83007,2.89991-1.64013,4.35987-2.45019,1.98-1.08985,3.96008-2.16992,5.96008-3.22a401.578,401.578,0,0,1,384.68,5.19995c.28.15015.56.31006.83.47021,1.72.98,3.43,1.96,5.13,2.97q3.33006,1.95007,6.61005,3.97,16.56,10.18506,32.04,21.8899c1.6,1.2102,3.2,2.42993,4.78,3.67016,1.43005,1.10987,2.85,2.24,4.26,3.36988.77.62011,1.55,1.25,2.32,1.88012a402.392,402.392,0,0,1,47.07,45.1399l.02.02c.22.25.44.49.65.74.69.78,1.38,1.57006,2.06,2.35009.09.09986.18.21.27.31006q1.5,1.72485,2.98,3.48a402.19679,402.19679,0,0,1,32.99,44.91992q5.55,8.72975,10.62006,17.78A399.06449,399.06449,0,0,1,1000.99986,465.7699Z" transform="translate(-198.99963 -33.2301)" fill="#3f3d56"/><path d="M882.10907,57.91254l24,649.68855v.01166q-1.215,1.677-2.46,3.35405c-.45.6173-.91,1.22294-1.38,1.84024-.69.94344-1.4,1.87493-2.12,2.80671-.00994.01165-.00994.02331-.01995.035l-.03.035v.01166a429.109,429.109,0,0,1-72.53,74.7938v.25619l-.28-.035c-.33.2795-.66.536-.99.80382-2.39,1.9099-4.8,3.79649-7.23,5.63672q-1.785,1.36271-3.58,2.69042v.01165c-.01,0-.01,0-.02.01166h-.02l-.02.02332-.06.03469c-.03.02331-.05.03525-.08.05857-.92.687-1.83,1.36255-2.76,2.03814-.28.22121-.56006.41911-.84.617-.49.36111-.99.72222-1.49,1.08333-.49.34917-.99.71028-1.49,1.05973-1.99,1.42084-4,2.81836-6.01,4.19257-.5.34945-1.01.68725-1.52,1.0367-.5.33779-1.01.67559-1.52,1.01338v.03469l-.06.01166-.02.01166-.02.02331h-.01c-1.4.93178-2.79,1.86356-4.2,2.772l-.01.01165c-1.13.7336-2.26,1.45582-3.4,2.17775-2.7,1.712-5.42,3.401-8.15,5.043-1.9,1.153-3.81,2.271-5.73,3.37737-1.16.67559-2.33,1.33952-3.5,2.00316-.97.54764-1.95,1.09471-2.92,1.63069-.27.15126-.53.30282-.8.44243-.44.24481-.89.48934-1.33.72222h-339c-.48-.25619-.96-.51267-1.44-.78051a.939.939,0,0,1-.26-.13961c-.01,0-.01-.01166-.02-.01166-.69-.37277-1.38-.75691-2.07-1.14134l-.02-.01165q-5.295-2.95228-10.5-6.0911-11.805-7.09283-23.19-15.10548-6.105-4.29749-12.08-8.85146-1.86-1.41514-3.72-2.865c-1.12-.87349-2.23-1.747-3.34-2.63212q-5.88-4.68177-11.61-9.60836-5.925-5.08354-11.68-10.42357-7.5-6.95292-14.7-14.30193-13.425-13.66147-25.75-28.69686c-.26-.31448-.52-.629-.78-.95509q-3.01493-3.68631-5.95-7.46531l20-662.29014a32.16515,32.16515,0,0,1,2.17-11.76308c3.04-7.68653,8.97-12.91579,15.78-12.91579h522.81c6.9,0,12.89,5.3575,15.89,13.207.1.25647.19.51266.28.76885A32.31718,32.31718,0,0,1,882.10907,57.91254Z" transform="translate(-198.99963 -33.2301)" fill="#3f3d56"/><ellipse cx="190.60944" cy="43.63131" rx="27" ry="31.44555" fill="#fff"/><path d="M675.605,161.13816c-45.51942,11.97342-95.9553,19.2568-147.23863,21.25113a184.36291,184.36291,0,0,1-22.55881-.15338c-16.50273-1.388-30.6385-6.57478-46.38144-9.40925-7.5683-1.35878-15.99866-2.35233-23.6181-3.82071q2.6409-3.27642,5.3767-6.4725c16.42969,1.388,33.115,5.93191,49.74191,8.04316,28.26427,3.5942,59.93279-.41641,81.3593-10.30779,10.39545-4.7996,18.35826-10.79,28.71719-15.61145a13.3833,13.3833,0,0,1,4.50737-1.38072c3.28012-.2995,6.15837,1.02276,8.5034,2.20622,17.37933,8.77365,42.61191,15.90364,66.03275,11.98069C681.79265,158.82965,678.476,160.38569,675.605,161.13816Z" transform="translate(-198.99963 -33.2301)" fill="#fff"/><path d="M666.79312,270.73647c.29278-.05347.58636-.09522.87933-.14594a23.90356,23.90356,0,0,1-3.46472-2.61035Z" transform="translate(-198.99963 -33.2301)" fill="#fff"/><path d="M858.713,294.43135q-20.085,1.605-40.38,2.39a254.385,254.385,0,0,1-30.88-.21c-22.59-1.91-41.94-9-63.49-12.88-19.75-3.55-43.75-5.26-56.29-13.14,32.41-5.61,65.99,5.81,99.41,10.06a237.37576,237.37576,0,0,0,81.01-4Q853.643,285.3814,858.713,294.43135Z" transform="translate(-198.99963 -33.2301)" fill="#fff"/><path d="M579.79978,535.08974v-9.57923a14.346,14.346,0,0,0-13.51571-14.31516V473.78588h-3.18016v37.367H548.79316v23.85125H481.21462V809.29346H630.68245v-220.43A53.85852,53.85852,0,0,0,579.79978,535.08974Z" transform="translate(-198.99963 -33.2301)" fill="#2f2e41"/><rect x="306.86128" y="540.73103" width="19.87604" height="15.90083" fill="#fff"/><rect x="339.45799" y="540.73103" width="19.87604" height="15.90083" fill="#fff"/><rect x="372.0547" y="540.73103" width="19.87604" height="15.90083" fill="#fff"/><rect x="306.86128" y="581.27815" width="19.87604" height="15.90083" fill="#fff"/><rect x="339.45799" y="581.27815" width="19.87604" height="15.90083" fill="#fff"/><rect x="372.0547" y="581.27815" width="19.87604" height="15.90083" fill="#fff"/><rect x="306.86128" y="621.82528" width="19.87604" height="15.90083" fill="#fff"/><rect x="339.45799" y="621.82528" width="19.87604" height="15.90083" fill="#fff"/><rect x="372.0547" y="621.82528" width="19.87604" height="15.90083" fill="#fff"/><rect x="306.86128" y="662.3724" width="19.87604" height="15.90083" fill="#fff"/><rect x="339.45799" y="662.3724" width="19.87604" height="15.90083" fill="#fff"/><rect x="372.0547" y="662.3724" width="19.87604" height="15.90083" fill="#fff"/><rect x="306.86128" y="702.91953" width="19.87604" height="15.90083" fill="#fff"/><rect x="339.45799" y="702.91953" width="19.87604" height="15.90083" fill="#fff"/><rect x="372.0547" y="702.91953" width="19.87604" height="15.90083" fill="#fff"/><rect x="306.86128" y="743.46665" width="19.87604" height="15.90083" fill="#fff"/><rect x="339.45799" y="743.46665" width="19.87604" height="15.90083" fill="#fff"/><rect x="372.0547" y="743.46665" width="19.87604" height="15.90083" fill="#fff"/><path d="M485.33994,455.28992v354H393.00987q-6.1051-3.68994-12.08008-7.59986-1.86-1.21509-3.72-2.46c-1.11988-.75-2.23-1.5-3.34-2.26025q-5.88006-4.01989-11.61-8.25-5.92493-4.36487-11.67994-8.94995-7.5-5.97-14.70007-12.28V401.43005h26.63V358.9h27.03V318.35h3.17993V358.9h19.83008a14.361,14.361,0,0,1,14.36,14.35987v28.17016h4.57a53.88271,53.88271,0,0,1,51.65,38.5398,55.61574,55.61574,0,0,1,1.4,5.9602A54.48039,54.48039,0,0,1,485.33994,455.28992Z" transform="translate(-198.99963 -33.2301)" fill="#2f2e41"/><rect x="179.41046" y="400.40617" width="64.39838" height="4.77025" fill="#fff"/><rect x="179.41046" y="429.82271" width="64.39838" height="4.77025" fill="#fff"/><rect x="179.41046" y="459.23926" width="64.39838" height="4.77025" fill="#fff"/><rect x="179.41046" y="488.6558" width="64.39838" height="4.77025" fill="#fff"/><rect x="179.41046" y="518.07234" width="64.39838" height="4.77025" fill="#fff"/><rect x="179.41046" y="547.48888" width="64.39838" height="4.77025" fill="#fff"/><rect x="179.41046" y="576.90542" width="64.39838" height="4.77025" fill="#fff"/><rect x="179.41046" y="606.32197" width="64.39838" height="4.77025" fill="#fff"/><rect x="179.41046" y="635.73851" width="64.39838" height="4.77025" fill="#fff"/><rect x="179.41046" y="665.15505" width="64.39838" height="4.77025" fill="#fff"/><rect x="179.41046" y="694.57159" width="64.39838" height="4.77025" fill="#fff"/><rect x="179.41046" y="723.98813" width="64.39838" height="4.77025" fill="#fff"/><rect x="185.7708" y="334.41771" width="19.87604" height="15.90083" fill="#fff"/><path d="M880.32987,47.21008c-.09-.26025-.18-.51025-.28-.77-3-7.85009-8.99-13.21-15.88995-13.21H341.34983c-6.80993,0-12.74,5.23-15.77991,12.91992a32.17252,32.17252,0,0,0-2.17,11.76l-20,677.71c1.16,1.28,2.33,2.56005,3.51,3.82006.80994.86988,1.62,1.73,2.43994,2.58985l20-684.11988a21.63372,21.63372,0,0,1,.76-5.74.29222.29222,0,0,1,.02-.09008c1.72-6.22,6.1-10.64991,11.22-10.64991H864.15989a8.88064,8.88064,0,0,1,3.56.75c4.68,2,8.12994,7.82007,8.41,14.80982.01.31006.02.61011.02.92016l24,657.7c.72-.92994,1.43-1.85987,2.12-2.80005.26-.34009.51-.67994.76-1.01.21-.28.42-.54981.62-.83008q1.24494-1.6798,2.46-3.35986v-.01l-24-649.68995A32.31436,32.31436,0,0,0,880.32987,47.21008ZM416.19981,822.25989q5.205,2.70007,10.5,5.23l.02.01025c.69006.32984,1.38.65991,2.07007.98.01,0,.01.00977.02.00977a1.00521,1.00521,0,0,0,.26.12012c.48.23.96.44995,1.43995.66992h339c.43994-.19995.89-.40991,1.33007-.61988.2699-.12011.52991-.25.79993-.38012.97-.46,1.95007-.92993,2.92005-1.39991,1.16992-.57006,2.34-1.14013,3.5-1.72,1.91992-.95,3.82995-1.90991,5.73-2.90014Z" transform="translate(-198.99963 -33.2301)" fill="#2f2e41"/><rect x="127.37475" y="83.70721" width="552.75223" height="6.94016" fill="#2f2e41"/><rect x="121.74022" y="169.70721" width="566" height="6.94016" fill="#2f2e41"/><polygon points="213.409 304.38 207.45 304.38 227.45 3.116 233.409 3.116 213.409 304.38" fill="#2f2e41"/><polygon points="604.052 306.38 598.093 306.38 574.093 3.116 580.052 3.116 604.052 306.38" fill="#2f2e41"/><rect x="122.74022" y="296.25618" width="568" height="19.86336" fill="#2f2e41"/><path d="M407.76452,285.29717h5.959A10.92484,10.92484,0,0,1,424.64838,296.222v0a0,0,0,0,1,0,0h-27.8087a0,0,0,0,1,0,0v0a10.92484,10.92484,0,0,1,10.92484-10.92484Z" fill="#2f2e41"/><path d="M404.73985,798.61c-9,9-8.3,12.75-11.73,10.67993q-6.1051-3.68994-12.08008-7.59986-1.86-1.21509-3.72-2.46c-1.11988-.75-2.23-1.5-3.34-2.26025q-5.88006-4.01989-11.61-8.25-5.92493-4.36487-11.67994-8.94995-7.5-5.97-14.70007-12.28-13.4251-11.72974-25.75-24.63989c-.26-.27-.52-.54-.78-.82007-.81994-.85987-1.63-1.72-2.43994-2.58985l4.07-14.70019,5-214.25.3-64.55982.02-5.9602L320.73985,346.61l.03-5.96,2.57995-125.87011.02-4.89991.04-6.93994-13.94006-13.55,20.30005-65.51.03-6.93994.30993-64.77.02-5.29c10.59-9.64013,25.58-11.53,43.91-9.83007.90991.09008,1.84.18017,2.77.28l.25,4.10009.46,7.30982v.01025l3.6,57.96v.02l.64,10.21.42993,6.93994,1.13012,18.15992-16.22009,60.90014.43006,6.93994,3.13,50.31983.43,6.94018.8899,14.32007,3.68,59.18994.37,5.96.76,12.29.95,15.2.11,1.77.43006,6.93994,1.24,19.94018.34,5.55982,1.57,25.33007.21008,3.37989.09,1.39013.10009,1.55982.15992,2.6001.21,3.3601.75,12.05982.31006,5.06006.3,4.77.21,3.45.35,5.56006.27,4.3.70007,11.33985.29993,4.77.51,8.29.30994,4.96.04.6001.66992,10.8.3,4.77.22,3.68995.59009,9.45.35,5.55.37,5.95.29,4.77,1.12,17.98.34,5.56006.07006,1.10986.29993,4.77,1.42005,22.82007.11,1.83007.23,3.73.05994,1.04,1.54,24.6399.18994,3.02.11011,1.75.23,3.81005,1.3,20.83985.29992,4.77.19007,3.09009.34,5.56.99,16,.29993,4.77.49,7.93995.3501,5.55.68994,11.14991.3,4.77.79,12.78.35,5.55.22,6.31983.17005,4.77Z" transform="translate(-198.99963 -33.2301)" fill="#ccc"/><path d="M903.09983,728.31995c-.27.32006-.55.62988-.83.95-.69.81006-1.4,1.6101-2.12,2.41015-.01.01-.01.01978-.02.03l-.03.02979v.01025a401.77668,401.77668,0,0,1-72.53,64.21973,2.74669,2.74669,0,0,1-.28.19018c-.33.24-.66.46-.99.68995-2.38995,1.63989-4.8,3.26-7.23,4.84008-1.19.77979-2.38,1.54981-3.58,2.31006v.00977c-.01,0-.01,0-.02.01h-.02l-.02.02-.06.03c-.03.02-.05.03-.08.05005-.92.59008-1.83,1.16992-2.75994,1.75-.28.18994-.56.3601-.84.53-.49.31006-.99.61988-1.49.92994-.49.3-.99.6101-1.49.90991-.63.38013-1.26.77-1.89,1.14013l.04-3.3.06-4.3899.29-20.18017,1-16.11988,5.93-95.40991.94-15.1001.21-3.3999,2.67-42.93017.91-14.74,2.07-33.19995.93-15.1001.91-14.58985.04-.57006.08-1.36011.05-.82984v-.01l1.06-16.93994.04-.72021.75-11.98v-.02l1.07-17.35987.68-10.8999.76-12.24023.61-9.80982.14-2.25.37-5.9602.02-.23975,2.3-37.1001.6-9.66992v-.01025l.63-10.13989.43005-6.93994.88995-14.17994.94-15.08007.37-5.96,1.31-21.16015v-.00977l.73-11.78027.73-11.79981,1.08-17.26.71-11.5.43-6.94018L842.71989,209.88l.13995-2.18017.30005-4.75977,1.01-16.28-21.69-37.22,1.59-25.56006.43-6.93994,4.56-73.32006.14-2.18995.25-4.10009c19.58-2.14991,35.55-.57007,46.68,9.55l.31,70.06006.03,6.93994,6.33,76.71.01,2.35009.03,6.93994,2.57,130.77.03,5.96,4.4,93.35986.03,5.9602,2.28,64.55982.09,19.86011,10.79,181.45Z" transform="translate(-198.99963 -33.2301)" fill="#ccc"/><path d="M819.06986,801.69006c-1.19.77979-2.38,1.54981-3.58,2.31006v.00977c-.01,0-.01,0-.02.01h-.02l-.02.02-.06.03c-.03.02-.05.03-.08.05005-.92.59008-1.83,1.16992-2.75994,1.75-.28.18994-.56.3601-.84.53-.49.31006-.99.61988-1.49.92994-.49.3-.99.6101-1.49.90991-.63.38013-1.26.77-1.89,1.14013q-2.055,1.24512-4.12,2.46c-.5.3-1.01.59008-1.52.89013-.5.2898-1.01.57984-1.52.86988v.03l-.06006.01-.02.01-.02.02h-.01c-1.4.79981-2.79,1.59986-4.2,2.37989l-.01.01c-1.13.63012-2.26,1.25-3.4,1.87011q-4.05,2.205-8.15,4.32984c-1.9.99023-3.81006,1.95019-5.73,2.90014-1.16.57984-2.33008,1.14991-3.5,1.72-.97.47-1.95008.93995-2.92005,1.39991-.27.13012-.53.26-.79993.38012-.44006.21-.89013.41993-1.33007.61988-.37.16992-.73.34009-1.1.51-.88.42016-1.77.82007-2.65,1.22-.99.45019-1.97.89013-2.96,1.33008-3.72,1.66015-7.48,3.26-11.25,4.8a392.10662,392.10662,0,0,1-41.23,14.26c-.65014.18995-1.31005.37989-1.97009.56006q-8.985,2.5199-18.1,4.60987-15.915,3.65991-32.12,6.01c-.02,0-.04993.01-.06994.01-1.29.18994-2.59009.37011-3.88013.55-.10987.02-.23.04-.34986.05005-.01.00977-.02.00977-.04,0h-.01c-1.43006.18994-2.86011.37989-4.30005.56006-.1.01978-.19995.02979-.3.0398-1.33985.15991-2.68994.32007-4.03992.47-1.45007.16015-2.9.31006-4.36.46h-.01c-2.22.22021-4.43995.43017-6.66.61011-.03992,0-.07995.01-.12.01-.88.08007-1.76.14013-2.64.21h-.00989q-15.52513,1.2301-31.34008,1.22-17.17493,0-34-1.42993c-.04,0-.08008-.01-.12-.01q-3.585-.29994-7.16-.65992c-.62989-.06-1.25-.13012-1.87989-.18994-.12011-.01025-.24011-.02-.3601-.04-.18994-.02-.38-.04-.58-.06006-.1-.01-.21008-.02-.30994-.04-.83007-.08985-1.66015-.17994-2.5-.28-.93-.11011-1.87011-.22-2.8-.34009-.93006-.10986-1.87012-.23-2.8-.35986-.2-.02-.40992-.04-.61-.08008-.68005-.08008-1.36-.16992-2.03-.27-.33-.04-.65-.08985-.97-.13989-.65-.09009-1.28992-.17994-1.94006-.28-.02,0-.04993-.01-.06995-.01a395.15046,395.15046,0,0,1-60.28992-13.59009h-.01c-1.07006-.32984-2.14013-.66992-3.21008-1.00977q-.47991-.13513-.96-.3-4.17-1.33519-8.29-2.76Q463.425,842.97,457.81992,840.84c-1.02-.39014-2.03-.78-3.05-1.16993-2.03-.8-4.05-1.60009-6.06006-2.41992q-5.14489-2.10021-10.22-4.33008h-.01v-.01c-2.66992-1.17993-5.33-2.38012-7.97-3.63012-.48-.22-.96-.43994-1.43995-.66992a1.00521,1.00521,0,0,1-.26-.12012c-.01,0-.01-.00977-.02-.00977-.69007-.32007-1.38-.65014-2.07007-.98l-.02-.01025q-5.295-2.53491-10.5-5.23-6.4499-3.33-12.78992-6.8999-5.25-2.955-10.4-6.07007-6.1051-3.68994-12.08008-7.59986Z" transform="translate(-198.99963 -33.2301)" fill="#2f2e41"/><ellipse cx="257.60944" cy="51.78387" rx="2" ry="2.3293" fill="#fff"/><ellipse cx="379.12725" cy="54.67256" rx="2" ry="2.3293" fill="#fff"/><ellipse cx="454.12725" cy="57.00186" rx="2" ry="2.3293" fill="#fff"/><circle cx="559.60944" cy="352.00356" r="2" fill="#fff"/><circle cx="438.12725" cy="239.48388" r="2" fill="#fff"/><circle cx="337.60944" cy="342.00356" r="2" fill="#fff"/><circle cx="320.60944" cy="237.00356" r="2" fill="#fff"/><circle cx="186.60944" cy="216.00356" r="2" fill="#fff"/><rect x="842.23996" y="659.58952" width="1.99977" height="109.96378" transform="translate(-218.18049 -9.9591) rotate(-1.56332)" fill="#b3b3b3"/><rect x="873.23974" y="228.59884" width="2.00021" height="201.94514" transform="translate(-203.79911 -20.20645) rotate(-0.85119)" fill="#b3b3b3"/><path d="M805.03884,437.23367h-28.236a4.36128,4.36128,0,0,0-3.34722,1.55017,6.331,6.331,0,0,0-1.19417-.11483,6.69728,6.69728,0,1,0,0,13.39456,6.62191,6.62191,0,0,0,2.91658-.67748l.4708,5.7873,1.87168,22.87358a4.1751,4.1751,0,0,0,.356.821,4.40193,4.40193,0,0,0,3.86392,2.29654h18.36088A4.41781,4.41781,0,0,0,803.971,480.868a4.52693,4.52693,0,0,0,.35021-.821l4.93759-37.10065A4.41491,4.41491,0,0,0,805.03884,437.23367Zm-32.77738,12.918a4.78544,4.78544,0,0,1,0-9.57087c.0861,0,.16648.023.25262.02874a4.38407,4.38407,0,0,0,.06889,2.33673l2.02094,6.56812A4.7068,4.7068,0,0,1,772.26146,450.15172Z" transform="translate(-198.99963 -33.2301)" fill="#f2f2f2"/><path d="M795.34906,816.05373l-4.71-8.58007,2.32-1.09009,1.85-.87988,8.07-3.81006,4.85-2.29,2-.95,1.59-.75,2.64,3.99,1.33,2.01.2.30005v.01a.68612.68612,0,0,0-.12.05981c-.03.02-.05.03027-.08.05029-.92.58985-1.83,1.16993-2.76,1.75-.28.18994-.56006.35987-.84.52979-.49.31006-.99.62012-1.49.93017-.49.29981-.99.60987-1.49.90992-1.99,1.22-4,2.41992-6.01,3.59985-.5.30005-1.01.59009-1.52.89014-.5.29-1.01.58007-1.52.87011v.02979l-.06.01-.02.01-.02.02h-.01C798.14911,814.47366,796.75909,815.27371,795.34906,816.05373Z" transform="translate(-198.99963 -33.2301)" fill="#2f2e41"/><g opacity="0.49"><path d="M790.59061,422.20046a8.03419,8.03419,0,0,0,.6184-.95087,6.51761,6.51761,0,0,1-1.0973.34453Z" transform="translate(-198.99963 -33.2301)" fill="#fff"/><path d="M793.173,401.79945c-1.8-3.44629-3.82028-6.87161-4.54219-10.692-.72314-3.82735-.08829-7.75989.13243-11.64847.22077-3.88874-.05607-8.04522-2.305-11.22529-3.06823,9.71391-6.10867,20.41725-2.18361,29.81758,1.70268,4.07784,4.60465,7.55,6.47536,11.55342,1.70826,3.65585,2.40057,8.21267.459,11.64492,3.1665-1.27934,5.14875-4.90846,5.27172-8.40464C796.61743,408.95908,794.973,405.2459,793.173,401.79945Z" transform="translate(-198.99963 -33.2301)" fill="#fff"/></g><g opacity="0.49"><path d="M787.19721,435.20046a3.12262,3.12262,0,0,0,.24026-.36942,2.53278,2.53278,0,0,1-.42632.13385Z" transform="translate(-198.99963 -33.2301)" fill="#fff"/><path d="M788.20052,427.2744a15.4328,15.4328,0,0,1-1.7647-4.154,18.70294,18.70294,0,0,1,.05145-4.52558,6.82408,6.82408,0,0,0-.89553-4.36117c-1.192,3.774-2.3733,7.93236-.84836,11.58451.66151,1.5843,1.789,2.93328,2.51576,4.48866a5.097,5.097,0,0,1,.17833,4.5242,3.66606,3.66606,0,0,0,2.04813-3.26531A8.83331,8.83331,0,0,0,788.20052,427.2744Z" transform="translate(-198.99963 -33.2301)" fill="#fff"/></g><path d="M395.23985,128.11h-63a7,7,0,1,1,0-14h63a7,7,0,0,1,0,14Z" transform="translate(-198.99963 -33.2301)" fill="#2f2e41"/><path d="M935.25447,47.61h-661a7,7,0,0,1,0-14h661a7,7,0,0,1,0,14Z" transform="translate(-198.99963 -33.2301)" fill="#2f2e41"/><path d="M373.23985,198.11h-63a7,7,0,0,1,0-14h63a7,7,0,0,1,0,14Z" transform="translate(-198.99963 -33.2301)" fill="#2f2e41"/><path d="M875.23985,128.11h-63a7,7,0,1,1,0-14h63a7,7,0,0,1,0,14Z" transform="translate(-198.99963 -33.2301)" fill="#2f2e41"/><path d="M900.23985,195.11h-63a7,7,0,0,1,0-14h63a7,7,0,0,1,0,14Z" transform="translate(-198.99963 -33.2301)" fill="#2f2e41"/><rect x="335.23974" y="219.59884" width="2.00021" height="201.94514" transform="translate(-203.72478 -28.19971) rotate(-0.85119)" fill="#b3b3b3"/><rect x="355.23974" y="451.59884" width="2.00021" height="201.94514" transform="translate(-207.16905 -27.877) rotate(-0.85119)" fill="#b3b3b3"/><rect x="333.23996" y="622.58952" width="1.99977" height="109.96378" transform="translate(-217.36053 -23.85927) rotate(-1.56332)" fill="#b3b3b3"/><path d="M732.07767,692.96283v-3.81662a5.71586,5.71586,0,0,0-5.385-5.70355V668.53773h-1.26707v14.888H719.7238v9.503H692.79869V802.213h59.552V714.38772A21.45869,21.45869,0,0,0,732.07767,692.96283Z" transform="translate(-198.99963 -33.2301)" fill="#2f2e41"/><rect x="503.61881" y="675.22014" width="7.91915" height="6.33532" fill="#fff"/><rect x="516.60621" y="675.22014" width="7.91915" height="6.33532" fill="#fff"/><rect x="529.59361" y="675.22014" width="7.91915" height="6.33532" fill="#fff"/><rect x="503.61881" y="691.3752" width="7.91915" height="6.33532" fill="#fff"/><rect x="516.60621" y="691.3752" width="7.91915" height="6.33532" fill="#fff"/><rect x="529.59361" y="691.3752" width="7.91915" height="6.33532" fill="#fff"/><rect x="503.61881" y="707.53026" width="7.91915" height="6.33532" fill="#fff"/><rect x="516.60621" y="707.53026" width="7.91915" height="6.33532" fill="#fff"/><rect x="529.59361" y="707.53026" width="7.91915" height="6.33532" fill="#fff"/><rect x="503.61881" y="723.68533" width="7.91915" height="6.33532" fill="#fff"/><rect x="516.60621" y="723.68533" width="7.91915" height="6.33532" fill="#fff"/><rect x="529.59361" y="723.68533" width="7.91915" height="6.33532" fill="#fff"/><rect x="503.61881" y="739.84039" width="7.91915" height="6.33532" fill="#fff"/><rect x="516.60621" y="739.84039" width="7.91915" height="6.33532" fill="#fff"/><rect x="529.59361" y="739.84039" width="7.91915" height="6.33532" fill="#fff"/><rect x="503.61881" y="755.99545" width="7.91915" height="6.33532" fill="#fff"/><rect x="516.60621" y="755.99545" width="7.91915" height="6.33532" fill="#fff"/><rect x="529.59361" y="755.99545" width="7.91915" height="6.33532" fill="#fff"/><path d="M672.98461,639.712h-1.82328v-11.2265a5.7205,5.7205,0,0,0-5.7205-5.72048h-7.90044V606.61h-1.26706v16.15506h-10.77v16.947H634.89163V802.213h59.552V661.17105A21.459,21.459,0,0,0,672.98461,639.712Z" transform="translate(-198.99963 -33.2301)" fill="#2f2e41"/><rect x="452.83898" y="619.31095" width="25.65804" height="1.9006" fill="#fff"/><rect x="452.83898" y="631.03129" width="25.65804" height="1.9006" fill="#fff"/><rect x="452.83898" y="642.75163" width="25.65804" height="1.9006" fill="#fff"/><rect x="452.83898" y="654.47197" width="25.65804" height="1.9006" fill="#fff"/><rect x="452.83898" y="666.19231" width="25.65804" height="1.9006" fill="#fff"/><rect x="452.83898" y="677.91265" width="25.65804" height="1.9006" fill="#fff"/><rect x="452.83898" y="689.63299" width="25.65804" height="1.9006" fill="#fff"/><rect x="452.83898" y="701.35333" width="25.65804" height="1.9006" fill="#fff"/><rect x="452.83898" y="713.07367" width="25.65804" height="1.9006" fill="#fff"/><rect x="452.83898" y="724.79401" width="25.65804" height="1.9006" fill="#fff"/><rect x="452.83898" y="736.51435" width="25.65804" height="1.9006" fill="#fff"/><rect x="452.83898" y="748.23469" width="25.65804" height="1.9006" fill="#fff"/><rect x="455.37311" y="593.01937" width="7.91915" height="6.33532" fill="#fff"/><path d="M915.85907,703.52371v9.31982c-1.44,1.84009-2.9,3.68018-4.38,5.49023-.32.39991-.64.79-.95,1.17994-.49.59008-.97,1.17993-1.45,1.76-.16.19995-.31995.38989-.49.58984-.82.98-1.64,1.96-2.48,2.94018,0,0,.01.01,0,.01q-1.215,1.44-2.46,2.87989c-.45.53-.91,1.05005-1.38,1.58008-.69.81-1.4,1.60986-2.12,2.40991-.00994.01-.00994.02-.01995.03l-.03.03v-28.22Z" transform="translate(-198.99963 -33.2301)" fill="#2f2e41"/><path d="M936.41906,684.08376q-3.93,6.06006-8.07,11.94c0,.01-.01.01-.02.02-1.65,2.35986-3.34,4.7-5.04,7.02q-1.635,2.22-3.3,4.41993-1.665,2.205-3.36,4.37011c-.25.32984-.51.65992-.77.98975-1.44,1.84009-2.9,3.68018-4.38,5.49023-.32.39991-.64.79-.95,1.17994-.49.59008-.97,1.17993-1.45,1.76-.17.19995-.33.38989-.49.58984-.82.98-1.64,1.96-2.48,2.94018,0,0,.01.01,0,.01q-1.215,1.44-2.46,2.87989c-.45.53-.91,1.05005-1.38,1.58008h-32.65a13.14914,13.14914,0,0,1-13.14-13.14014V697.22366a13.15521,13.15521,0,0,1,13.14-13.1399Z" transform="translate(-198.99963 -33.2301)" fill="#2f2e41"/><path d="M953.68679,522.22543a18.99856,18.99856,0,0,0-6.24-1.04h-5.37a19.6557,19.6557,0,0,0-5.77.87,19.43811,19.43811,0,0,0-13.61,18.52v157.75c0,.59.03,1.17.08,1.74a18.4227,18.4227,0,0,0,.51,3c1.7-2.32,3.39-4.66,5.04-7.02.01-.01.02-.01.02-.02q4.14-5.88006,8.07-11.94c1.41-2.17,2.81-4.36,4.18-6.56a398.42493,398.42493,0,0,0,26.24-49.56V540.5754A19.40741,19.40741,0,0,0,953.68679,522.22543Z" transform="translate(-198.99963 -33.2301)" fill="#2f2e41"/><polygon points="521.418 782.347 507.804 775.836 526.505 718.931 546.598 728.541 521.418 782.347" fill="#ffb6b6"/><path d="M811.68908,806.40359c-.99.62012-1.98,1.23-2.98,1.84009-1.99,1.22-4,2.41992-6.01,3.59985-1.01.59009-2.03,1.18018-3.04,1.76025v.02979l-.06.01-.02.01-1.54.38013-2.21-5.84009-1.02-2.68994-1.44-3.81006-2.64-6.97-13.9-36.69995,21.61-5.33008.81,3.31006h.01l.4,1.63989,7.55005,30.62012,1.54,6.26.05.18994.93,3.74.8,3.24.88995,3.62011Z" transform="translate(-198.99963 -33.2301)" fill="#ffb6b6"/><path d="M756.57192,568.24386a14.19227,14.19227,0,0,0,19.22614,4.82342,13.59364,13.59364,0,0,0,1.8244-1.32208l43.04089,24.7L818.794,571.09005l-40.58576-19.5683a14.13963,14.13963,0,0,0-17.15167-2.234,13.6071,13.6071,0,0,0-4.66107,18.67029Q756.4819,568.102,756.57192,568.24386Z" transform="translate(-198.99963 -33.2301)" fill="#ffb6b6"/><path d="M802.15884,587.14425l7.60827,4.63666,34.16913,20.83624a20.147,20.147,0,0,0,27.76563-6.39325l.01123-.01794a19.71264,19.71264,0,0,0,2.51263-13.91608L859.039,516.41677a21.05272,21.05272,0,0,0-27.63659-15.97635,20.04469,20.04469,0,0,0-12.64722,24.35077l15.88019,53.84573-24.3418-11.34869Z" transform="translate(-198.99963 -33.2301)" fill="#00d7ad"/><path d="M942.26681,661.95541c-.01-.03-.03-.14-.06-.31l-.03-.11q-.10491-.54006-.24-1.2a269.77483,269.77483,0,0,0-7.85-29.97,92.05724,92.05724,0,0,0-7.47-17.34c-.1-.18-.21-.36-.32-.54l-.37-.6-3.11,1.14-.12.04-47.28,17.33-13.67,5.01-.43.16-2.33,9.5-32.69-4.23-26.64-3.45-7.65-.99a25.21416,25.21416,0,0,0-18.79,5.14,26.21121,26.21121,0,0,0-9.97,17.64c-.1.76-.16,1.53-.19,2.29l-2.31,86.17v.11l1.07,2.14,22.35,44.84h15.49l9.14-.01h7.43l-15.45-39.09.35-.53a17.18856,17.18856,0,0,0,1.77-15.23l1.74-5.04c3.61-10.41,1.9-15.41-.26-21.73a53.6921,53.6921,0,0,1-3.38-16.03l-.36-7.13c9.07,1.59,17.52,3.36,25.66,5.14q4.08.885,8.08,1.79c7.59,1.69,14.92,3.32,22.1,4.68,14.54,2.77,28.47,4.46,42.78,3.41.28-.02.56-.04.84-.07,3.48-.28,6.98-.73,10.52-1.36,1.99-.36,3.99-.77,6.01-1.25.56-.14,1.13-.28,1.69-.42a19.44444,19.44444,0,0,0,4.46-1.79,29.18734,29.18734,0,0,0,5.55-4.02c.01-.01.02-.01.02-.02q4.14011-5.88006,8.07-11.94c1.41-2.17,2.81-4.36,4.18-6.56C942.59676,672.03542,943.35677,666.49538,942.26681,661.95541Z" transform="translate(-198.99963 -33.2301)" fill="#2f2e41"/><path d="M942.59676,645.7654c-.15-.64-.34-1.29-.54-1.92a136.81822,136.81822,0,0,0-5.54-14.02c-2.36-5.2-5.19-10.77-8.56-16.8q-2.445-4.38006-5.26-9.11-1.41-2.37-2.93-4.83a2.54253,2.54253,0,0,0-.13-.22l-.29-.48-46.78,6.26-17.42,2.33-1.04,8.68-.25,2.15c-.01,0-.01,0,0,.01l-.7,5.86v.01l-.93,7.74-.08-.01-25.85-3.35-26.64-3.45-14.31-1.85a25.21437,25.21437,0,0,0-18.79,5.14,26.21145,26.21145,0,0,0-9.97,17.64c-.09.7-.15,1.42-.18006,2.13l-13.5,31.99a206.39608,206.39608,0,0,0-15.26,60.04l-9.9,31.65,1.41.13,20.98,1.95,5.54.52,12.2-17.81c1.39-2.03,2.71-4.12,3.94-6.26a95.07523,95.07523,0,0,0,5.39-10.84l26.39-62.8q3.06006.52513,6.06,1,13.87509,2.25,26.64,3.67c27.67,3.09,51.63,3.33,72.96.71q8.985-1.095,17.37-2.88,3.07507-.64509,6.07-1.39c.47-.11.93-.22,1.39-.34a25.51931,25.51931,0,0,0,17.85-16.68A26.038,26.038,0,0,0,942.59676,645.7654Z" transform="translate(-198.99963 -33.2301)" fill="#2f2e41"/><ellipse cx="644.12182" cy="390.58636" rx="32.35846" ry="33.07962" fill="#ffb6b6"/><path d="M919.95681,600.1954c-.05005-.37-.11005-.74-.19-1.11-.77-4.06-2.77-8.04-4.7-11.9-1.84-3.68-3.59-7.16-4.31-10.62-.71-3.41-.29-6.83.12-10.13.44-3.58.9-7.28-.13-10.87a266.74279,266.74279,0,0,0-21.4-52.86,40.18776,40.18776,0,0,0-33.35-28.06,9.47234,9.47234,0,0,0,1.07-5.46,9.25974,9.25974,0,0,0-3.41-6.27,8.92655,8.92655,0,0,0-6.59-1.92l-15.04,1.69a9.21972,9.21972,0,0,0-8.01,10.21,9.95993,9.95993,0,0,0,.5,2.18c-13.96,17.78-21.13,33.98-21.79,49.3v.01a52.23228,52.23228,0,0,0,.03,5.31,52.90749,52.90749,0,0,0,3.68,16.67,71.09855,71.09855,0,0,0,9.96,17.13q1.26,1.59,2.61,3.12,1.26,1.5,2.82,3.15l2.63,4.12,2.45,3.85,13.1,30.23,6.67-.22.93,6.65.22,1.55,4.32,15.47.32,1.16,5.91-2.81,35.26-16.74,26.36-12.52Z" transform="translate(-198.99963 -33.2301)" fill="#00d7ad"/><path d="M806.83267,546.20534A70.78107,70.78107,0,0,0,819.3345,566.333c.90246,1.07758,1.8554,2.13611,2.85278,3.19647l5.11883,8.03162c18.86908-14.14349,34.15711-69.83228,34.15711-69.83228l-21.2898-4.14142Z" transform="translate(-198.99963 -33.2301)" opacity="0.2" style="isolation:isolate"/><path d="M793.94344,459.98641a14.2249,14.2249,0,0,1-4.80352,19.25037,13.64758,13.64758,0,0,1-2.02546.9935l1.50708,49.60324-21.48071-13.5221,1.86206-45.031a14.18545,14.18545,0,0,1,6.10993-16.20468,13.57541,13.57541,0,0,1,18.642,4.589Q793.85134,459.82429,793.94344,459.98641Z" transform="translate(-198.99963 -33.2301)" fill="#ffb6b6"/><path d="M790.50955,511.1097l-23.62238,3.3591,1.01569,48.91812a20.46785,20.46785,0,0,0,10.00628,17.249h0a19.61138,19.61138,0,0,0,23.426-2.65973l55.7699-53.64279a21.14539,21.14539,0,0,0,1.55816-29.03614h0a20.054,20.054,0,0,0-28.2608-2.37747q-.23841.20142-.47046.41016a20.57072,20.57072,0,0,0-1.57031,1.56406l-36.82532,42.36373Z" transform="translate(-198.99963 -33.2301)" fill="#00d7ad"/><path d="M724.76681,806.28542l-14.73-7.06-2.31-1.11-3.69,9.06-25.76,5.67a6.11226,6.11226,0,0,0-1,11.63l25.17,10.27,7.99-7.19-1.96,9.65,9.48,3.87,10.38995-33.07Z" transform="translate(-198.99963 -33.2301)" fill="#2f2e41"/><path d="M929.70937,409.47c-5.50024-6.41418-8.11523-14.92419-12.51226-22.20782-4.3971-7.28369-12.04883-13.80261-20.13245-12.10761-5.57233,1.16852-9.87878,6.08564-12.059,11.56769-2.17975,5.482-2.58838,11.52756-2.97046,17.45014.135-12.17115-7.88373-23.97028-18.92975-27.85395-11.04516-3.88363-24.26428.4484-31.205,10.22647a16.8664,16.8664,0,0,0-22.40161-.47024c-6.20825,5.54874-7.58215,16.10983-3.01642,23.18738s14.4538,9.71414,21.7096,5.78885l2.56518,2.35968c-1.4439,5.05014,1.35621,11.01556,6.06324,12.91659,3.81683,1.54175,9.20532,1.28513,10.6336,5.29062.99817,2.79877-.86743,5.78616-2.852,7.93683-1.98407,2.15063-4.34015,4.37152-4.57843,7.34759-.3601,4.49042,4.28028,7.636,8.49854,8.58341,10.17145,2.28445,21.4574-2.42572,27.31988-11.4021q.16947-.25965.36853-.52a39.27855,39.27855,0,0,0,7.90058-30.03345c-.32978-2.07467.0025-3.61783,1.43292-4.10916,6.18256-2.12369,23.50433,2.33353,28.74652,6.36188,5.24262,4.02835,9.44061,9.3595,14.49,13.64783,5.04987,4.28839,11.48462,7.59625,17.89618,6.42846,5.135-.93527,9.50348-4.66327,12.4419-9.16,2.938-4.49671,4.629-9.73825,6.14373-14.9473C953.90743,422.31142,938.36691,419.56557,929.70937,409.47Z" transform="translate(-198.99963 -33.2301)" fill="#2f2e41"/><path d="M827.56909,795.97366v.22l-.28-.03c-.33.24-.66.4602-.99.69018q-3.585,2.45985-7.23,4.83985c-1.19.78-2.38,1.55005-3.58,2.31006v.01c-.01,0-.02.01-.03.01h-.01l-.02.02-.06.02978c-.03.02-.05.03027-.08.05029V619.2637c0-5.36011-1.8-9.71-4.01-9.72h-166.49c-2.22.01-4.01,4.35986-4.02,9.72v245.46c-2.22.22-4.44.42993-6.66.6101-.04,0-.08.00977-.12.00977-.88.08008-1.76.14014-2.64.2102h-.01c-.53-.98022-1.05005-1.97-1.57-2.97V606.65359c0-1.48.06-2.97.16-4.43994a56.89758,56.89758,0,0,1,.75-6.02c1.69-9.29,5.51-15.58008,9.85-15.6001h175a4.68176,4.68176,0,0,1,1.84.39014,7.179,7.179,0,0,1,2.27,1.58984,14.06825,14.06825,0,0,1,2.23,3.05029c2.14,3.76978,3.67,9.3899,4.21,15.92993,0,.05982.01.11988.01.17994.13995,1.62011.21,3.27.19995,4.91992l.14,21.43017.09,12.77979.27,40.1001.1,14.24Z" transform="translate(-198.99963 -33.2301)" fill="#2f2e41"/><polygon points="497.613 487.911 486.032 538.866 478.632 546.972 473.293 546.972 495.297 454.326 496.385 470.065 496.385 470.076 497.613 487.911" fill="#2f2e41"/><path d="M752.34676,573.21542l-67.94-.43-6.03-.04-4.3-.03-5.01-.03h-.04a2.76479,2.76479,0,0,0-1.94.8l-8.46,8.46a2.18417,2.18417,0,0,0-.45.64.981.981,0,0,0-.13.22,2.82406,2.82406,0,0,0,2.54,3.94h88.01a2.80046,2.80046,0,0,0,2.52-1.6l.69-1.5,1.42-3.05,1.61-3.44a2.74191,2.74191,0,0,0,.26-1.17A2.785,2.785,0,0,0,752.34676,573.21542Z" transform="translate(-198.99963 -33.2301)" fill="#2f2e41"/><path d="M751.8066,583.643l-.69482,1.50549a2.79888,2.79888,0,0,1-2.51306,1.59815H660.58523a2.819,2.819,0,0,1-2.5362-3.9375.83936.83936,0,0,1,.12745-.22Z" transform="translate(-198.99963 -33.2301)" opacity="0.17" style="isolation:isolate"/><polygon points="496.385 470.065 496.385 470.076 477.543 546.972 473.293 546.972 495.297 454.326 496.385 470.065" opacity="0.17" style="isolation:isolate"/><path d="M718.5068,517.3854l-26.67-202.91a2.8922,2.8922,0,0,0-1.1-1.92l-18.36-22.98-1.65-1.27a2.92887,2.92887,0,0,0-2.14-.57l-2.76.37a2.89376,2.89376,0,0,0-2.5,3.24h0l27.64,210.24v.01l1.69,12.86,2.01,15.27v.02l3.12,23.76a2.83194,2.83194,0,0,0,1.25,2.02,2.87289,2.87289,0,0,0,2.33.42l1.75-.44a2.93881,2.93881,0,0,0,1.66-1.14l.78-1.11.36-.52,12.08-33.3A2.87577,2.87577,0,0,0,718.5068,517.3854Z" transform="translate(-198.99963 -33.2301)" fill="#2f2e41"/><path d="M672.37234,289.57629,705.92,552.73983l-.36444.51514-.77735,1.10669a2.92909,2.92909,0,0,1-1.66046,1.14093l-1.7525.44055a2.90561,2.90561,0,0,1-3.57923-2.438L663.33108,291.34856a2.89621,2.89621,0,0,1,2.49322-3.24777l2.76709-.36368a2.85477,2.85477,0,0,1,2.131.57264Z" transform="translate(-198.99963 -33.2301)" opacity="0.17" style="isolation:isolate"/><polygon points="474.361 263.872 492.164 289.283 513.324 450.284 501.852 473.043 474.361 263.872" fill="#00d7ad"/><path d="M942.09906,621.70364a8.69956,8.69956,0,0,1-5.58,8.11987,8.45609,8.45609,0,0,1-2.43.54c-.22.02-.45.03-.67.03h-16.79v81.4602c-.25.32984-.51.65992-.77.98975-1.44,1.84009-2.9,3.68018-4.38,5.49023-.32.39991-.64.79-.95,1.17994-.49.59008-.97,1.17993-1.45,1.76-.17.19995-.33.38989-.49.58984-.82.98-1.64,1.96-2.48,2.94018,0,0,.01.01,0,.01q-1.215,1.44-2.46,2.87989a8.529,8.529,0,0,1-3.5-3.68994c-.00994-.01-.00994-.02-.01995-.04a.488.488,0,0,1-.03-.07007,8.54308,8.54308,0,0,1-.84-3.75v-89.75h-37.64a8.38617,8.38617,0,0,1-3.24-.62988,8.6503,8.6503,0,0,1-5.22-6.08008v-.01a8.56,8.56,0,0,1,.7-5.85987c-.01-.01-.01-.01,0-.01a8.22189,8.22189,0,0,1,1.53-2.14013c0-.01,0-.01.01-.02a8.70791,8.70791,0,0,1,6.22-2.61987h71.8A8.68484,8.68484,0,0,1,942.09906,621.70364Z" transform="translate(-198.99963 -33.2301)" fill="#2f2e41"/><path d="M941.52206,454.36742a27.21464,27.21464,0,0,0-27.21472,27.21463v.00006a27.21945,27.21945,0,0,0,22.00335,26.71067v44.51077h17.3711V454.36742Z" transform="translate(-198.99963 -33.2301)" fill="#2f2e41"/><path d="M831.54674,385.0798c7.43626,9.87349,17.15787,33.72013,13.62243,45.56431" transform="translate(-198.99963 -33.2301)" fill="#fd6584"/></svg>